<?xml version="1.0" encoding="UTF-8"?>
<svg width="32px" height="32px" viewBox="0 0 32 32" version="1.1" xmlns="http://www.w3.org/2000/svg" xmlns:xlink="http://www.w3.org/1999/xlink">
    <title>icon</title>
    <defs>
        <linearGradient x1="17.1376949%" y1="35.9031415%" x2="100%" y2="87.2488993%" id="linearGradient-1">
            <stop stop-color="#FF02F7" stop-opacity="0.25" offset="0%"></stop>
            <stop stop-color="#FF01EC" stop-opacity="0.75" offset="100%"></stop>
        </linearGradient>
    </defs>
    <g id="icon" stroke="none" stroke-width="1" fill="none" fill-rule="evenodd">
        <rect id="Rectangle" fill="url(#linearGradient-1)" x="0" y="0" width="32" height="32" rx="16"></rect>
        <path d="M13.8459566,11.8571429 C14.2844523,11.8571429 14.711672,11.9072831 15.1225903,12.0023442 C13.376995,12.4875938 12.0921696,14.1415378 12.0921696,16.1071429 C12.0921696,18.454353 13.9242964,20.3571429 16.1843393,20.3571429 C17.5867803,20.3571429 18.8244452,19.624442 19.5618001,18.5075152 L19.6800026,18.3178628 C19.4915957,21.4122081 17.0711239,23.8771465 14.0719536,23.9955466 L13.8459566,24 C10.6173239,24 8,21.2817288 8,17.9285714 C8,14.6516221 10.4997066,11.9810286 13.6267934,11.8613306 L13.8459566,11.8571429 Z M11.7802026,13.471141 L11.888,13.288 L11.8723384,13.2958814 C10.1826527,14.0856829 9,15.8586621 9,17.9285714 C9,20.7377341 11.1782532,23 13.8459566,23 C15.3040433,23 16.6217972,22.3220081 17.5137833,21.2433213 L17.583,21.155 L17.5530764,21.1648895 C17.1878334,21.2697462 16.8078358,21.333351 16.4187998,21.3516399 L16.1843393,21.3571429 C13.3633672,21.3571429 11.0921696,18.9983478 11.0921696,16.1071429 C11.0921696,15.1544742 11.3406291,14.2513012 11.7802026,13.471141 Z M21.4505038,10.0478841 C21.4632753,11.8574011 22.0541687,12.7621596 23.2231838,12.7621596 C22.0836038,12.7621596 21.4934642,13.8930254 21.4527649,16.154757 L21.45,16.384 L21.4482427,16.154757 C21.4075435,13.8930254 20.8174038,12.7621596 19.6778238,12.7621596 C20.8226087,12.7621596 21.4129862,11.9312269 21.4489562,10.2693614 L21.4505038,10.0478841 Z M18.6466364,8.82142857 C18.6539484,9.85741599 18.9922475,10.3754097 19.6615338,10.3754097 C19.020546,10.3754097 18.683184,11.0003366 18.6494477,12.2501904 L18.646,12.46 L18.643825,12.2501904 C18.6100888,11.0003366 18.2727268,10.3754097 17.631739,10.3754097 C18.2729048,10.3754097 18.6103109,9.92014179 18.6439573,9.00960597 L18.6466364,8.82142857 Z M23.1542521,7 C23.1603454,7.86332285 23.4422614,8.29498428 24,8.29498428 C23.4693347,8.29498428 23.1883942,8.80897145 23.1571786,9.83694581 L23.1542521,10.0357143 C23.1542521,8.87522761 22.8723362,8.29498428 22.3085043,8.29498428 C22.8404345,8.29498428 23.1214766,7.91895921 23.1516307,7.16690908 L23.1542521,7 Z" id="Combined-Shape" fill="#FFFFFF" fill-rule="nonzero"></path>
    </g>
</svg>