<?xml version="1.0" encoding="UTF-8"?>
<svg width="43px" height="50px" viewBox="0 0 43 50" version="1.1" xmlns="http://www.w3.org/2000/svg" xmlns:xlink="http://www.w3.org/1999/xlink">
    <title>icon--recruiting</title>
    <g id="Page-1" stroke="none" stroke-width="1" fill="none" fill-rule="evenodd">
        <g id="icon--recruiting" transform="translate(0.2061, 0.8268)" fill="#FFFFFF" fill-rule="nonzero">
            <g id="Group-6" transform="translate(1.708, 1.6389)">
                <path d="M26.499901,30.8685451 C31.7732901,30.8685451 35.999901,35.2964231 35.999901,40.7018784 L35.999901,44.3685451 C35.999901,45.7492569 34.8806129,46.8685451 33.499901,46.8685451 C32.1191892,46.8685451 30.999901,45.7492569 30.999901,44.3685451 L30.999901,40.7018784 C30.999901,38.0071573 28.9584984,35.8685451 26.499901,35.8685451 L12.499901,35.8685451 C10.0413037,35.8685451 7.99990104,38.0071573 7.99990104,40.7018784 L7.99990104,44.3685451 C7.99990104,45.7492569 6.88061292,46.8685451 5.49990104,46.8685451 C4.11918917,46.8685451 2.99990104,45.7492569 2.99990104,44.3685451 L2.99990104,40.7018784 C2.99990104,35.2964231 7.22651194,30.8685451 12.499901,30.8685451 L26.499901,30.8685451 Z" id="Path"></path>
                <path d="M19.5021847,10.1039914 C24.7014603,10.1039914 28.916306,14.3188371 28.916306,19.5181126 C28.916306,24.7173882 24.7014603,28.9322339 19.5021847,28.9322339 C14.3029091,28.9322339 10.0880635,24.7173882 10.0880635,19.5181126 C10.0880635,14.3188371 14.3029091,10.1039914 19.5021847,10.1039914 Z M19.5021847,15.1039914 C17.0643329,15.1039914 15.0880635,17.0802608 15.0880635,19.5181126 C15.0880635,21.9559645 17.0643329,23.9322339 19.5021847,23.9322339 C21.9400366,23.9322339 23.916306,21.9559645 23.916306,19.5181126 C23.916306,17.0802608 21.9400366,15.1039914 19.5021847,15.1039914 Z" id="Oval-Copy"></path>
                <g id="Group-4">
                    <path d="M3.51218323,17.6457813 C4.32802469,17.5019264 5.10601227,18.0466792 5.24986713,18.8625206 C5.39372199,19.6783621 4.84896922,20.4563497 4.03312777,20.6002045 L0.31908402,21.2550906 C-0.496757435,21.3989455 -1.27474502,20.8541927 -1.41859988,20.0383513 C-1.56245474,19.2225098 -1.01770197,18.4445222 -0.201860513,18.3006674 L3.51218323,17.6457813 Z" id="Path-4" transform="translate(1.9156, 19.4504) rotate(10) translate(-1.9156, -19.4504)"></path>
                    <path d="M4.80972155,4.50663705 C5.40045584,3.92584061 6.35016913,3.93389682 6.93096558,4.5246311 L9.57498835,7.21389501 C10.1557848,7.80462929 10.1477286,8.75434259 9.55699429,9.33513903 C8.96626001,9.91593547 8.01654671,9.90787926 7.43575027,9.31714497 L4.79172749,6.62788107 C4.21093105,6.03714679 4.21898727,5.08743349 4.80972155,4.50663705 Z" id="Path-4"></path>
                    <path d="M11.5357381,0.0799914036 C12.3019012,-0.235104985 13.1784351,0.130556764 13.4935315,0.89671978 L14.927979,4.38460697 C15.2430754,5.15076998 14.8774137,6.02730392 14.1112506,6.3424003 C13.3450876,6.65749669 12.4685537,6.29183494 12.1534573,5.52567193 L10.7190098,2.03778474 C10.4039134,1.27162173 10.7695751,0.395087792 11.5357381,0.0799914036 Z" id="Path-4"></path>
                    <path d="M-0.075203754,11.234014 C0.245388764,10.4701344 1.12452706,10.1107793 1.88840659,10.4313718 L5.36589842,11.89084 C6.12977795,12.2114325 6.48913308,13.0905708 6.16854056,13.8544504 C5.84794804,14.6183299 4.96880975,14.977685 4.20493021,14.6570925 L0.727438385,13.1976243 C-0.0364411466,12.8770318 -0.395796272,11.9978935 -0.075203754,11.234014 Z" id="Path-4"></path>
                    <path d="M0.133855781,24.8552353 C0.454124133,24.0912198 1.33310987,23.7314916 2.09712537,24.05176 L5.57523618,25.5097524 C6.33925168,25.8300208 6.69897982,26.7090065 6.37871147,27.473022 C6.05844311,28.2370375 5.17945738,28.5967656 4.41544188,28.2764973 L0.937331068,26.8185048 C0.173315568,26.4982365 -0.186412571,25.6192508 0.133855781,24.8552353 Z" id="Path-4" transform="translate(3.2563, 26.1641) scale(1, -1) translate(-3.2563, -26.1641)"></path>
                    <path d="M19.0895754,-1.44183528 C19.9118276,-1.54279515 20.6602388,-0.958072224 20.7611987,-0.13582007 L21.2208092,3.6074078 C21.3217691,4.42965995 20.7370462,5.17807117 19.914794,5.27903104 C19.0925419,5.37999091 18.3441307,4.79526798 18.2431708,3.97301583 L17.7835602,0.22978796 C17.6826003,-0.592464194 18.2673233,-1.34087541 19.0895754,-1.44183528 Z" id="Path-4" transform="translate(19.5022, 1.9186) rotate(7) translate(-19.5022, -1.9186)"></path>
                    <path d="M38.6807181,17.6457813 C39.4965595,17.5019264 40.2745471,18.0466792 40.418402,18.8625206 C40.5622568,19.6783621 40.0175041,20.4563497 39.2016626,20.6002045 L35.4876189,21.2550906 C34.6717774,21.3989455 33.8937898,20.8541927 33.749935,20.0383513 C33.6060801,19.2225098 34.1508329,18.4445222 34.9666743,18.3006674 L38.6807181,17.6457813 Z" id="Path-4" transform="translate(37.0842, 19.4504) scale(-1, 1) rotate(10) translate(-37.0842, -19.4504)"></path>
                    <path d="M29.4428078,4.50663705 C30.0335421,3.92584061 30.9832554,3.93389682 31.5640518,4.5246311 L34.2080746,7.21389501 C34.788871,7.80462929 34.7808148,8.75434259 34.1900805,9.33513903 C33.5993463,9.91593547 32.649633,9.90787926 32.0688365,9.31714497 L29.4248137,6.62788107 C28.8440173,6.03714679 28.8520735,5.08743349 29.4428078,4.50663705 Z" id="Path-4" transform="translate(31.8164, 6.9209) scale(-1, 1) translate(-31.8164, -6.9209)"></path>
                    <path d="M24.8885514,0.0799914036 C25.6547145,-0.235104985 26.5312484,0.130556764 26.8463448,0.89671978 L28.2807923,4.38460697 C28.5958887,5.15076998 28.230227,6.02730392 27.4640639,6.3424003 C26.6979009,6.65749669 25.821367,6.29183494 25.5062706,5.52567193 L24.0718231,2.03778474 C23.7567267,1.27162173 24.1223884,0.395087792 24.8885514,0.0799914036 Z" id="Path-4" transform="translate(26.1763, 3.2112) scale(-1, 1) translate(-26.1763, -3.2112)"></path>
                    <path d="M32.8312615,11.234014 C33.151854,10.4701344 34.0309923,10.1107793 34.7948719,10.4313718 L38.2723637,11.89084 C39.0362432,12.2114325 39.3955984,13.0905708 39.0750058,13.8544504 C38.7544133,14.6183299 37.875275,14.977685 37.1113955,14.6570925 L33.6339037,13.1976243 C32.8700241,12.8770318 32.510669,11.9978935 32.8312615,11.234014 Z" id="Path-4" transform="translate(35.9531, 12.5442) scale(-1, 1) translate(-35.9531, -12.5442)"></path>
                    <path d="M32.6210906,24.8552353 C32.941359,24.0912198 33.8203447,23.7314916 34.5843602,24.05176 L38.062471,25.5097524 C38.8264865,25.8300208 39.1862147,26.7090065 38.8659463,27.473022 C38.545678,28.2370375 37.6666922,28.5967656 36.9026767,28.2764973 L33.4245659,26.8185048 C32.6605504,26.4982365 32.3008223,25.6192508 32.6210906,24.8552353 Z" id="Path-4" transform="translate(35.7435, 26.1641) scale(-1, -1) translate(-35.7435, -26.1641)"></path>
                </g>
            </g>
        </g>
    </g>
</svg>