<?xml version="1.0" encoding="UTF-8"?>
<svg width="61px" height="36px" viewBox="0 0 61 36" version="1.1" xmlns="http://www.w3.org/2000/svg" xmlns:xlink="http://www.w3.org/1999/xlink">
    <title>icon--process</title>
    <g id="Page-1" stroke="none" stroke-width="1" fill="none" fill-rule="evenodd">
        <g id="icon--process" transform="translate(2.9982, 3)" fill="#FFFFFF" fill-rule="nonzero">
            <path d="M53.232233,-1.76776695 C54.2085438,-2.74407768 55.7914562,-2.74407768 56.767767,-1.76776695 C57.7440777,-0.791456224 57.7440777,0.791456224 56.767767,1.76776695 L33.017767,25.517767 C32.0414562,26.4940777 30.4585438,26.4940777 29.482233,25.517767 L18.75,14.785 L1.76776695,31.767767 C0.833904516,32.7016294 -0.654958358,32.7422321 -1.6370817,31.8895751 L-1.76776695,31.767767 C-2.74407768,30.7914562 -2.74407768,29.2085438 -1.76776695,28.232233 L16.982233,9.48223305 C17.9585438,8.50592232 19.5414562,8.50592232 20.517767,9.48223305 L31.25,20.215 L53.232233,-1.76776695 Z" id="Path"></path>
            <path d="M55,-2.5 C56.3807119,-2.5 57.5,-1.38071187 57.5,0 L57.5,15 C57.5,16.3807119 56.3807119,17.5 55,17.5 C53.6192881,17.5 52.5,16.3807119 52.5,15 L52.5,2.5 L40,2.5 C38.6745166,2.5 37.5899613,1.46846406 37.5053177,0.164375688 L37.5,0 C37.5,-1.38071187 38.6192881,-2.5 40,-2.5 L55,-2.5 Z" id="Path"></path>
        </g>
    </g>
</svg>