<?xml version="1.0" encoding="UTF-8"?>
<svg width="17px" height="15px" viewBox="0 0 17 15" version="1.1" xmlns="http://www.w3.org/2000/svg" xmlns:xlink="http://www.w3.org/1999/xlink">
    <title>icon--mail</title>
    <g id="icon--mail" stroke="none" stroke-width="1" fill="none" fill-rule="evenodd">
        <g id="Group" fill="#000000" fill-rule="nonzero">
            <path d="M14.7261554,0 C15.9874249,0 17,1.09976885 17,2.42827869 L17,12.5717213 C17,13.9002312 15.9874249,15 14.7261554,15 L2.2738446,15 C1.01257512,15 0,13.9002312 0,12.5717213 L0,2.42827869 C0,1.09976885 1.01257512,0 2.2738446,0 L14.7261554,0 Z M14.7261554,1.47540984 L2.2738446,1.47540984 C1.82292134,1.47540984 1.4346115,1.89715738 1.4346115,2.42827869 L1.4346115,12.5717213 C1.4346115,13.1028426 1.82292134,13.5245902 2.2738446,13.5245902 L14.7261554,13.5245902 C15.1770787,13.5245902 15.5653885,13.1028426 15.5653885,12.5717213 L15.5653885,2.42827869 C15.5653885,1.89715738 15.1770787,1.47540984 14.7261554,1.47540984 Z" id="Path"></path>
            <path d="M15.6383244,1.38788319 C15.949432,1.1356484 16.400457,1.19054654 16.645717,1.51050162 C16.8909769,1.8304567 16.8375968,2.29430824 16.5264892,2.54654304 L8.94408241,8.69408402 C8.68342679,8.90541416 8.31583639,8.90523298 8.05537785,8.69364599 L0.487901599,2.546105 C0.177029212,2.29356364 0.124081466,1.82965969 0.3696395,1.50994653 C0.615197534,1.19023337 1.06627351,1.13577987 1.3771459,1.38832123 L8.5000994,7.17520492 L15.6383244,1.38788319 Z" id="Path"></path>
        </g>
    </g>
</svg>