<?xml version="1.0" encoding="UTF-8"?>
<svg width="45px" height="38px" viewBox="0 0 45 38" version="1.1" xmlns="http://www.w3.org/2000/svg" xmlns:xlink="http://www.w3.org/1999/xlink">
    <title>icon--training</title>
    <g id="Page-1" stroke="none" stroke-width="1" fill="none" fill-rule="evenodd">
        <g id="icon--training" transform="translate(2.8099, 2.7782)" fill="#FFFFFF" fill-rule="nonzero">
            <path d="M21,18.5 C26.2733891,18.5 30.5,22.9278781 30.5,28.3333333 L30.5,32 C30.5,33.3807119 29.3807119,34.5 28,34.5 C26.6192881,34.5 25.5,33.3807119 25.5,32 L25.5,28.3333333 C25.5,25.6386123 23.4585974,23.5 21,23.5 L7,23.5 C4.54140261,23.5 2.5,25.6386123 2.5,28.3333333 L2.5,32 C2.5,33.3807119 1.38071187,34.5 0,34.5 C-1.38071187,34.5 -2.5,33.3807119 -2.5,32 L-2.5,28.3333333 C-2.5,22.9278781 1.72661089,18.5 7,18.5 L21,18.5 Z" id="Path"></path>
            <path d="M14,-2.5 C19.2467051,-2.5 23.5,1.75329488 23.5,7 C23.5,12.2467051 19.2467051,16.5 14,16.5 C8.75329488,16.5 4.5,12.2467051 4.5,7 C4.5,1.75329488 8.75329488,-2.5 14,-2.5 Z M14,2.5 C11.5147186,2.5 9.5,4.51471863 9.5,7 C9.5,9.48528137 11.5147186,11.5 14,11.5 C16.4852814,11.5 18.5,9.48528137 18.5,7 C18.5,4.51471863 16.4852814,2.5 14,2.5 Z" id="Oval"></path>
            <path d="M30.5700965,20.4121487 C30.8947578,19.0701501 32.2458526,18.2454352 33.5878513,18.5700965 C38.21566,19.6896732 41.4963411,23.6549939 41.5,28.2521295 L41.5,32 C41.5,33.3807119 40.3807119,34.5 39,34.5 C37.6192881,34.5 36.5,33.3807119 36.5,32 L36.5000008,28.2541197 C36.4982201,26.0173384 34.8443352,24.018307 32.4121487,23.4299035 C31.0701501,23.1052422 30.2454352,21.7541474 30.5700965,20.4121487 Z" id="Path"></path>
            <path d="M23.5646091,-0.564686685 C23.8764769,-1.90971595 25.2196574,-2.74725877 26.5646867,-2.43539092 C31.1928122,-1.36228154 34.5,2.49610422 34.5,7 C34.5,11.5038958 31.1928122,15.3622815 26.5646867,16.4353909 C25.2196574,16.7472588 23.8764769,15.909716 23.5646091,14.5646867 C23.2527412,13.2196574 24.090284,11.8764769 25.4353133,11.5646091 C27.8683862,11.0004599 29.5,9.0969104 29.5,7 C29.5,4.9030896 27.8683862,2.99954012 25.4353133,2.43539092 C24.090284,2.12352308 23.2527412,0.780342581 23.5646091,-0.564686685 Z" id="Path"></path>
        </g>
    </g>
</svg>