<?xml version="1.0" encoding="UTF-8"?>
<svg width="195px" height="66px" viewBox="0 0 195 66" version="1.1" xmlns="http://www.w3.org/2000/svg" xmlns:xlink="http://www.w3.org/1999/xlink">
    <title>Combined Shape</title>
    <g id="Page-1" stroke="none" stroke-width="1" fill="none" fill-rule="evenodd">
        <path d="M97.5122819,0.820809249 C119.434313,0.820809249 138.589204,10.9858927 140.051608,23.2208132 L141.758218,23.386635 L144.627713,23.6906247 L147.427991,24.0141422 L150.158039,24.357002 L154.119218,24.9071528 L156.669266,25.2975568 L159.145544,25.7066538 L161.54704,26.1342585 L163.872742,26.5801852 L166.121638,27.0442486 L168.292717,27.526263 L170.384968,28.0260431 C170.727051,28.1108099 171.065807,28.1963093 171.401216,28.2825372 L173.373326,28.8086179 L175.264078,29.3520005 L177.07246,29.9124995 L178.797461,30.4899293 C179.077956,30.5875683 179.354935,30.6859049 179.628377,30.7849354 L181.226408,31.3874138 C189.780253,34.7464999 194.435897,38.8527841 194.435897,43.5673911 C194.435897,46.9208047 191.023738,50.0341355 184.975553,52.811824 L183.473774,53.471976 L181.873156,54.1189458 L180.176083,54.7524398 L178.38494,55.3721645 C178.078709,55.4742882 177.768658,55.5758259 177.454837,55.6767716 L175.527058,56.2752918 L173.51117,56.8593088 L171.409555,57.4285289 C171.052275,57.5221496 170.691522,57.6151415 170.327346,57.7074985 L168.101614,58.2539731 L165.796117,58.784917 C165.405353,58.8720971 165.011365,58.9586178 164.614202,59.0444732 L162.193529,59.5515706 L159.699051,60.0424034 L155.824167,60.7475144 L153.15561,61.1964014 L150.421593,61.6279964 L146.203048,62.2423241 L143.315815,62.6294047 L140.371468,62.9981657 L137.372391,63.3483137 L134.320968,63.679555 L129.650901,64.140325 L124.876468,64.5569038 L121.639505,64.8095831 L118.776138,65.0123261 C117.815428,65.0768473 116.856428,65.137728 115.899752,65.1949374 L114.81036,65.2689391 L112.225984,65.4217461 L109.603112,65.5516275 L106.946256,65.6583707 L102.90712,65.7746366 L100.185042,65.8226045 L96.0692235,65.849711 C95.9101052,65.849711 95.7507152,65.8495304 95.5910606,65.8491696 L94.8839616,65.849711 L91.9384803,65.8353073 L88.9853549,65.7924632 L86.0278386,65.7217295 L83.0691846,65.6236568 L80.1126461,65.4987958 L77.1614761,65.3476973 L74.2189279,65.1709118 L71.2882547,64.9689902 L66.9216266,64.6201819 L64.0348733,64.357829 L61.171381,64.0722673 L58.3344028,63.7640474 L55.527192,63.4337201 L52.7530017,63.0818361 L50.015085,62.708946 L47.3166951,62.3156005 L44.6610853,61.9023503 L42.0515085,61.4697462 L39.4912181,61.0183387 L36.9834672,60.5486787 L34.5315088,60.0613167 L32.1385963,59.5568034 L29.8079828,59.0356896 L26.4359893,58.2240974 C26.069924,58.1319831 25.7067934,58.0392345 25.3466652,57.945863 L23.2224675,57.3782516 L21.1735814,56.7962424 C20.8385571,56.6980717 20.5068063,56.599324 20.1783968,56.5000108 L18.2485778,55.8974374 L16.4022034,55.281843 L14.6425266,54.6537781 L12.9728007,54.0137935 C12.7021896,53.9061667 12.4354621,53.7980662 12.1726859,53.6895034 L10.6439859,53.0326718 C10.1505858,52.8119402 9.673533,52.5894514 9.21336968,52.3652972 L7.88409037,51.6879303 C3.41274775,49.300302 0.863247863,46.7391838 0.863247863,44.1108241 C0.863247863,39.5393168 5.40889115,35.3864607 13.7133871,31.9140949 L15.314337,31.2710647 C15.5884395,31.1652434 15.8661647,31.0601026 16.1474887,30.9556503 L17.8784248,30.3372628 L19.6945777,29.7357831 L21.5947949,29.1515949 L23.5779239,28.5850817 L25.642812,28.0366269 L27.7883069,27.5066143 L30.0132559,26.9954273 C30.3906379,26.9118196 30.7712825,26.8290122 31.1551656,26.7470133 L33.4971349,26.2647839 C33.8938762,26.1860504 34.293808,26.1081412 34.6969064,26.0310644 L37.1533027,25.5786556 L39.6845432,25.1466067 L42.2894752,24.7353012 L44.9669462,24.3451226 L47.7158037,23.9764546 L50.5348951,23.6296806 L53.423068,23.3051842 L55.237222,23.1198325 C56.7741497,10.9108198 75.6907536,0.820809249 97.5122819,0.820809249 Z M96.0692235,45.385449 C79.8721759,45.385449 66.4977589,46.6443332 57.1469055,48.8528594 C56.8228027,48.9294074 56.5049404,49.0069269 56.1933611,49.0853111 L54.3996229,49.5651416 C48.3878152,51.274901 45.1844426,53.2720223 45.1844426,54.5692889 C45.1844426,55.1320557 46.155832,55.7673542 47.9044054,56.4250681 L48.8425584,56.755561 L49.9048474,57.0883977 L51.0858779,57.4221861 L52.3802553,57.755534 L54.5225462,58.2516848 L56.0766896,58.5778411 L58.5833421,59.0566788 L60.3635352,59.3669428 L62.2247075,59.6684135 L65.1565016,60.1010872 L67.196521,60.3744846 L70.3712985,60.7585226 L72.5564486,60.9951458 L74.7902106,61.2146232 L78.2201999,61.5086454 L80.55189,61.6791676 L82.9133108,61.8276714 L85.2990677,61.9527649 L86.4170361,61.9994292 C84.1607534,60.7962977 82.7912787,59.214711 82.7912787,57.4822854 C82.7912787,53.7149188 89.2674842,50.6608648 97.2562887,50.6608648 C105.245093,50.6608648 111.721299,53.7149188 111.721299,57.4822854 C111.721299,59.1804385 110.405472,60.7336618 108.228404,61.9275822 C116.895954,61.5319559 125.566221,60.7395423 132.75144,59.6393995 C133.107775,59.5848404 133.459647,59.5294514 133.806957,59.473299 L135.835293,59.1277564 L137.74943,58.7670864 L139.544645,58.3944826 L141.216216,58.0131385 C141.484245,57.9490301 141.746926,57.8846907 142.004159,57.8201867 L143.481409,57.4317198 L144.823209,57.0424963 C145.035293,56.97774 145.241536,56.9130853 145.441839,56.8485987 L146.571609,56.464228 L147.554123,56.0870845 C149.217526,55.404231 150.114703,54.7739148 150.114703,54.2846887 C150.114703,53.3338048 149.151879,52.390427 147.333667,51.4932128 L146.434145,51.0825326 C146.274232,51.0146791 146.109356,50.947134 145.939565,50.8799148 L144.862231,50.4806519 C144.672977,50.4148069 144.478905,50.349323 144.280065,50.2842178 L143.030201,49.8982725 L141.668251,49.5222613 C141.432049,49.4604675 141.191275,49.3991229 140.945977,49.3382449 L139.420298,48.9787185 L137.788401,48.6312377 L136.052633,48.2966471 C135.754812,48.2420031 135.452762,48.1879314 135.14653,48.1344496 L133.259357,47.8207779 C132.936596,47.7697259 132.609751,47.7192991 132.278872,47.6695149 L130.245574,47.3786624 L128.117794,47.1040785 C127.755421,47.0597171 127.389209,47.0160688 127.019207,46.9731512 L123.588177,46.6070946 L121.191034,46.3863839 L118.708798,46.1853201 L116.143816,46.0047478 L113.498435,45.8455115 L110.775003,45.708456 L107.975866,45.5944257 L105.103373,45.5042653 L102.15987,45.4388193 L99.1477044,45.3989323 Z M97.2562887,54.2969804 C93.8729089,54.2969804 90.7494961,54.9199821 88.5635256,55.9508438 C87.0014896,56.6874699 86.4075312,57.3496992 86.4075312,57.4822854 C86.4075312,57.6148716 87.0014896,58.2771009 88.5635256,59.0137271 C90.7494961,60.0445888 93.8729089,60.6675905 97.2562887,60.6675905 C100.639668,60.6675905 103.763081,60.0445888 105.949052,59.0137271 C107.511088,58.2771009 108.105046,57.6148716 108.105046,57.4822854 C108.105046,57.3496992 107.511088,56.6874699 105.949052,55.9508438 C103.763081,54.9199821 100.639668,54.2969804 97.2562887,54.2969804 Z M22.8707152,32.4790417 L21.6037875,32.8426606 L19.8648408,33.3780526 C19.5821689,33.4682709 19.3030902,33.5589742 19.0276301,33.6501503 L17.418497,34.2027832 L15.8974317,34.7661787 L14.4656548,35.3397518 L13.1243867,35.9229176 C7.51009022,38.4699084 4.47950036,41.2706138 4.47950036,44.1108241 C4.47950036,45.8103846 6.62361652,47.5991555 10.4045042,49.3637242 L11.6522849,49.9200196 L13.005331,50.4739124 L14.460092,51.0246088 C14.7108312,51.1160811 14.9656606,51.2073871 15.2245061,51.2985104 L16.8251825,51.8429241 L18.5186976,52.3821574 L20.3015011,52.9154164 C20.6058785,53.003751 20.9138283,53.0918035 21.2252765,53.1795576 L23.1353554,53.7023672 L25.1258466,54.2172184 L27.1931995,54.7233175 L30.4305782,55.46432 L32.6745524,55.9450667 L34.9829617,56.4142835 L38.5586252,57.094754 L42.2592966,57.7448178 L43.9161156,58.017561 C42.3908877,56.9614209 41.5681901,55.8099242 41.5681901,54.5692889 C41.5681901,53.5486537 41.9482265,52.5734607 42.683959,51.6495803 C31.0091915,44.2968318 24.3834134,38.0126892 22.8707152,32.4790417 Z M96.7306596,24.9240814 L91.304424,24.9349533 C90.7122918,24.9395259 90.1224052,24.9452294 89.5347898,24.9520517 L86.0365533,25.0063129 L82.5940432,25.0868395 L79.2084799,25.1930463 L75.8810838,25.3243485 C75.3314329,25.348291 74.7842564,25.3732547 74.2395798,25.3992275 L71.0017229,25.5670757 L67.8250843,25.7585567 L64.7108844,25.9730855 L61.6603437,26.210077 L58.6746827,26.4689463 L55.7551216,26.7491083 L52.9028811,27.0499781 L50.1191816,27.3709706 L47.4052434,27.7115009 L44.762287,28.0709839 L42.1915328,28.4488346 L39.6942014,28.844468 L37.271513,29.2572992 L34.9246882,29.686743 L32.6549474,30.1322145 L30.463511,30.5931288 C30.1048648,30.6712022 29.7495321,30.7498947 29.3975384,30.8291941 L27.3258469,31.3121755 L26.3626438,31.552798 C27.5382424,35.8515884 33.6263947,41.6566933 44.6966093,48.626319 L45.6411655,49.2091191 C47.1075989,48.3319743 48.9520466,47.5192679 51.1450766,46.7780982 L52.6776133,46.2888641 C53.2058744,46.1294598 53.7514393,45.9737563 54.3139731,45.8218342 L56.0521459,45.3774931 C56.3502141,45.305354 56.6524408,45.2341804 56.958784,45.1639825 L58.8459073,44.7545838 C59.4911914,44.6220742 60.1526067,44.493548 60.8298183,44.3690862 L62.9085069,44.0079743 L65.079963,43.6717329 L67.3421764,43.360847 L69.693137,43.0758012 C70.0922477,43.0304738 70.4949725,42.9862433 70.9012694,42.9431198 L73.381582,42.6977433 L75.9456165,42.4794189 L78.5913628,42.2886316 L81.3168109,42.125866 L84.1199507,41.9916071 L86.9987719,41.8863395 L89.9512645,41.8105482 L92.9754184,41.7647178 L96.0692235,41.7493333 L99.2695942,41.7620992 L102.397455,41.8002828 L105.451032,41.8637131 L108.428551,41.952219 L111.328236,42.0656294 L114.148314,42.2037733 L116.887009,42.3664796 L119.542549,42.5535772 L122.113157,42.7648951 L124.59706,43.0002622 L126.992483,43.2595075 L129.297652,43.5424598 L131.510792,43.8489481 L133.630129,44.1788014 L135.653888,44.5318485 L137.580295,44.9079185 C137.893152,44.9725059 138.201878,45.0380454 138.506437,45.1045335 L140.283488,45.514817 L141.958752,45.9476955 C142.229381,46.0217154 142.495696,46.0966696 142.757658,46.1725545 L144.276911,46.6390051 C150.387065,48.62885 153.730955,51.195973 153.730955,54.2846887 C153.730955,55.5135721 152.943436,56.6562952 151.491308,57.7070679 L153.374953,57.400218 L157.221613,56.7263516 C157.640582,56.6497594 158.056676,56.5726101 158.469834,56.4949192 L160.913046,56.0223994 L163.282798,55.5376286 L165.576113,55.0413542 L167.79001,54.534323 L169.92151,54.0172823 L171.967634,53.4909791 L173.925402,52.9561606 L175.791836,52.4135737 C176.095131,52.3225367 176.394497,52.2312072 176.68987,52.1396006 L178.413715,51.5867621 C178.692873,51.4941099 178.967915,51.4012118 179.238779,51.3080835 L180.813331,50.7466743 C181.067235,50.652687 181.316836,50.5585005 181.562073,50.4641305 L182.980629,49.8958316 C183.890757,49.5156629 184.72907,49.1330546 185.491596,48.749003 L186.578048,48.1719675 C189.321032,46.6309835 190.819645,45.074874 190.819645,43.5673911 C190.819645,41.1359441 188.666109,38.8114133 184.617366,36.679279 L183.466369,36.1026222 C183.266769,36.0073292 183.063303,35.9124497 182.855993,35.8179919 L181.566213,35.2563681 L180.185368,34.7052479 L178.714621,34.1650168 L177.155137,33.63606 C176.887893,33.5488615 176.617,33.4621488 176.342483,33.3759299 L174.652077,32.8646071 L172.875846,32.365522 L171.014953,31.8790599 L169.070564,31.4056061 L167.043843,30.9455461 L163.851937,30.281412 L161.62448,29.856522 L159.318767,29.4463743 L156.935963,29.0513543 L154.477231,28.6718474 L150.649318,28.1325168 L148.005863,27.7934782 L145.290556,27.4713014 L142.504563,27.1663716 L139.649047,26.8790742 L136.725174,26.6097944 L132.21374,26.240501 L129.124066,26.0179514 L124.369391,25.7205594 L119.474011,25.4680422 L116.134196,25.3252702 L112.734757,25.2034059 L107.526352,25.0606543 L102.190342,24.9671126 L96.7306596,24.9240814 Z M97.5122819,4.45692489 C96.6352852,4.45692489 95.7640507,4.4741805 94.8996219,4.50800179 C91.5491349,8.42408432 89.1628167,14.0290044 87.7761155,21.3439503 L91.229515,21.2987351 L96.7569385,21.2878562 L100.461855,21.3100659 L105.914738,21.3846323 L109.478857,21.4615739 L112.984887,21.5600838 L116.431817,21.6799764 L119.818633,21.8210661 L124.783935,22.0720398 L128.016044,22.265311 L131.1845,22.4791303 L134.28829,22.713312 L136.337786,22.8889641 C134.380753,13.2682092 117.33959,4.45692489 97.5122819,4.45692489 Z M90.1103712,4.86796709 L89.6487857,4.92240895 C73.5041129,6.84747611 60.7328938,14.4755582 58.9626006,22.7643042 L59.4020481,22.7245586 L62.4905501,22.4691964 L67.2438269,22.1309201 L72.1382743,21.8475149 L75.4777466,21.6897014 L78.8770801,21.5572339 L82.3351223,21.4504959 L84.086584,21.4097527 C85.2858395,14.6792681 87.2867959,9.16109651 90.1103712,4.86796709 Z" id="Combined-Shape" fill="#FFFFFF" fill-rule="nonzero"></path>
    </g>
</svg>