<svg width="126" height="53" viewBox="0 0 126 53" fill="none" xmlns="http://www.w3.org/2000/svg">
<path d="M99.0488 43.4463C100.391 43.4463 101.34 43.919 102.147 44.7373L100.902 46.5029C100.357 45.9659 99.8229 45.6582 99.0596 45.6582C97.958 45.6582 97.1066 46.7324 97.1064 48.1006V48.127C97.1066 49.5846 97.9687 50.6201 99.1797 50.6201C99.7034 50.6201 100.096 50.492 100.401 50.249V49.1621H98.9062V47.3467H102.409V51.3623C101.602 52.1552 100.488 52.7559 99.0918 52.7559C96.7141 52.7557 94.9474 50.8378 94.9473 48.127V48.1006C94.9474 45.492 96.6928 43.4463 99.0488 43.4463ZM29.1865 45.7988H26.8955V52.5771H24.7783V45.7988H22.499V43.625H29.1865V45.7988ZM37.2178 43.625C38.385 43.625 39.1923 43.983 39.7051 44.584C40.1523 45.1084 40.3818 45.7866 40.3818 46.6689V46.6943C40.3818 48.0754 39.7597 48.9839 38.8105 49.457L40.6318 52.5771H38.1992L36.6611 49.8662H35.7227V52.5771H33.6064V43.625H37.2178ZM52.7314 52.5771H50.4629L49.917 50.9658H46.9609L46.415 52.5771H44.2002L47.4404 43.5615H49.4805L52.7314 52.5771ZM59.1348 52.5771H57.0186V43.625H59.1348V52.5771ZM69.1406 48.3564V43.625H71.2344V52.5771H69.3906L66.1182 47.666V52.5771H64.0234V43.625H65.998L69.1406 48.3564ZM78.252 52.5771H76.1348V43.625H78.252V52.5771ZM88.2568 48.3564V43.625H90.3516V52.5771H88.5088L85.2354 47.666V52.5771H83.1406V43.625H85.1152L88.2568 48.3564ZM47.582 49.0342H49.2949L48.4443 46.5029L47.582 49.0342ZM35.7227 47.9219H37.1299C37.8391 47.9219 38.2646 47.5126 38.2646 46.8604V46.835C38.2646 46.1189 37.8173 45.7607 37.1191 45.7607H35.7227V47.9219ZM102.824 15.3252H125.75V19.7197H102.823L102.822 21.708H125.75V24.2676L102.821 24.125V26.7969C102.821 33.747 98.033 38.7909 91.4355 38.791H56.8428V29.1943H41.6182V38.7812H22.9434V24.2646L0 24.123V21.708H22.9434V19.7197H0V15.3252H22.9434V0H102.828L102.824 15.3252ZM26.2852 35.4639H38.2754V25.8467H41.9365V25.8506H60.1846V35.4482H91.4346C96.1686 35.4482 99.4766 31.8935 99.4766 26.7969L99.4678 22.2314L99.4658 22.1709C99.3238 19.0908 98.0204 16.6403 95.9521 15.2285H99.4844V3.34277H26.2852V35.4639ZM45.7383 12.4736H35.5205V16.7217H44.1729L61.3418 6.09766H69.4512L69.4395 16.7217H72.2549V6.0957H96.7314V12.4736H78.8613V16.6494H91.4346C94.8055 16.6507 96.5697 19.1326 96.7148 22.2979V22.2969L96.7236 26.8027C96.7235 30.0505 94.8961 32.6934 91.4346 32.6934H72.3125V25.8525H90.2393V23.0986H69.5088V32.6953H62.9385V23.0986H44.5557V23.0928H35.5195V32.71H29.041V6.0957H56.2051L45.7383 12.4736ZM54.9004 16.7217H62.8701L62.9385 11.4893L54.9004 16.7217Z" fill="white"/>
</svg>
