<svg width="158" height="40" viewBox="0 0 158 40" fill="none" xmlns="http://www.w3.org/2000/svg">
<path d="M38.5921 34.5471V33.1063H32.0542V39.3199H33.6887V36.9785H37.4117V35.5377H33.6887V34.5471H38.5921Z" fill="white"/>
<path d="M54.4979 33.1063H52.3035V39.4099H54.4979V33.1063Z" fill="white"/>
<path d="M67.5583 34.5471H70.4641V39.3199H72.0986V34.5471H75.0951V33.1063H67.5583V34.5471Z" fill="white"/>
<path d="M94.3459 36.7085L89.1701 33.0164H88.6252V39.32H90.2597V35.6278L95.4356 39.5001H95.9804V33.1064H94.3459V36.7085Z" fill="white"/>
<path d="M111.599 36.8885H115.14V35.3576H111.599V34.5471H116.411V33.1063H109.964V39.3199H116.684V37.789H111.599V36.8885Z" fill="white"/>
<path d="M134.573 35.3577L132.847 35.2677C131.667 35.1776 131.667 34.9975 131.667 34.9075C131.667 34.5473 132.303 34.3672 133.483 34.3672C134.936 34.3672 135.662 34.6373 136.207 34.9075L136.48 35.0876L137.206 33.7368L136.934 33.5567C136.026 33.1065 135.027 32.8363 133.483 32.8363C131.304 32.8363 130.032 33.5567 130.032 34.9075C130.032 36.5284 131.939 36.7085 132.666 36.7085L134.391 36.7986C135.662 36.8886 135.662 37.0687 135.662 37.2488C135.662 37.6991 134.936 37.8792 133.665 37.8792C132.121 37.8792 131.304 37.519 130.759 37.1588L130.486 36.9787L129.578 38.2394L129.851 38.4195C130.759 39.0498 131.939 39.32 133.574 39.32C135.935 39.32 137.206 38.5095 137.206 37.1588C137.388 35.5378 135.481 35.4478 134.573 35.3577Z" fill="white"/>
<path d="M155.185 35.3577L153.46 35.2677C152.279 35.1776 152.279 34.9975 152.279 34.9075C152.279 34.5473 152.915 34.3672 154.096 34.3672C155.548 34.3672 156.275 34.6373 156.82 34.9075L157.092 35.0876L157.819 33.7368L157.546 33.5567C156.638 33.1065 155.639 32.8363 154.096 32.8363C151.916 32.8363 150.645 33.5567 150.645 34.9075C150.645 36.5284 152.552 36.7085 153.278 36.7085L155.004 36.7986C156.275 36.8886 156.275 37.0687 156.275 37.2488C156.275 37.6991 155.548 37.8792 154.277 37.8792C152.733 37.8792 151.916 37.519 151.371 37.1588L151.099 36.9787L150.191 38.2394L150.463 38.4195C151.371 39.0498 152.552 39.32 154.186 39.32C156.547 39.32 157.819 38.5095 157.819 37.1588C158 35.5378 156.093 35.4478 155.185 35.3577Z" fill="white"/>
<path d="M28.6938 13.6551H31.9628V15.0059L32.1444 14.8258L32.326 14.5556C32.9617 13.7452 33.8697 13.385 34.9594 13.2949H35.3226V16.2666C35.141 16.1766 34.9594 16.1766 34.8686 16.1766C33.0525 15.9965 32.1444 16.987 32.1444 18.7881V25.5419H28.6938V13.6551Z" fill="white"/>
<path d="M39.2278 18.248C39.7726 18.158 40.3175 18.158 40.8623 18.248C41.952 18.3381 42.6784 18.6082 43.314 19.0585V18.248C43.314 16.9873 42.4968 16.2669 40.5899 15.9967C39.8635 15.9067 38.683 15.9067 37.4117 16.0868C37.2301 16.0868 37.0485 16.1768 36.8669 16.1768V13.5653C37.5933 13.4753 38.1382 13.3852 38.8646 13.3852C44.4945 13.2051 46.6738 15.0062 46.6738 18.4281V25.4521H43.314V24.3715C43.2232 24.4615 43.0416 24.5516 42.9508 24.6417C42.0428 25.272 41.0439 25.6322 39.7727 25.5422C36.8669 25.5422 35.1416 23.7411 35.2324 21.8501C35.2324 20.1391 36.6853 18.6082 39.2278 18.248ZM40.5899 23.6511C40.8623 23.6511 41.1347 23.6511 41.4071 23.6511C41.952 23.561 42.3152 23.471 42.5876 23.2008C43.4048 22.6605 43.4956 21.5799 42.86 20.9495C42.4968 20.6794 42.0428 20.4092 41.3163 20.3192C39.5002 20.049 38.5014 20.8595 38.4106 21.9401C38.5922 22.8406 39.2278 23.561 40.5899 23.6511Z" fill="white"/>
<path d="M49.125 13.6554H52.3939V14.9161C52.4848 14.8261 52.5756 14.736 52.6664 14.646C53.5744 13.8355 54.5733 13.3853 55.7537 13.3853C58.6595 13.2952 60.4756 15.2763 60.4756 18.6983V25.5422H57.025V19.1485C57.025 17.4376 56.3894 16.5371 55.2089 16.1769C53.4836 15.7266 52.4848 16.7172 52.4848 18.5182V25.5422H49.0342V13.6554H49.125Z" fill="white"/>
<path d="M62.5647 18.518C62.8371 16.8971 63.7451 15.5463 65.0164 14.6458C67.3773 13.0249 70.3739 13.295 71.8267 15.006V13.6552H75.0957V25.452C75.0957 28.7839 72.8256 30.855 68.2854 30.9451C67.5589 30.9451 66.9233 30.855 66.1969 30.765V27.7933C66.8325 27.9734 67.4681 28.0634 68.1037 28.0634C70.5555 27.9734 71.6451 26.9828 71.6451 25.2719V24.3713C70.3739 25.8122 68.1037 26.2624 65.7428 25.2719C63.9267 24.4614 62.7463 22.8405 62.4739 20.7693C62.4739 20.4091 62.3831 20.0489 62.3831 19.5986C62.4739 19.2384 62.4739 18.8782 62.5647 18.518ZM65.9244 20.0489C66.1969 22.03 67.5589 23.2007 69.4658 22.8405C70.7371 22.6604 71.6451 21.6698 71.8267 20.0489C71.9175 19.6887 71.9175 19.3285 71.8267 18.9683C71.5543 17.0772 70.4647 16.0866 68.921 16.0866C67.2865 16.0866 66.1968 17.0772 66.0152 18.9683C66.0152 19.1484 65.9244 19.3285 65.9244 19.5086C65.9244 19.7787 65.9244 19.8688 65.9244 20.0489Z" fill="white"/>
<path d="M89.9872 13.6553H91.3493V10.5936L93.0746 9.87317V13.6553H96.2528L95.8895 14.916H92.9838V21.2196V21.5798V22.3002C92.9838 23.7411 93.8918 24.4615 95.7079 24.3714C95.8895 24.3714 95.9803 24.3714 96.162 24.2814V25.6321C95.9803 25.6321 95.8895 25.7222 95.7079 25.7222C92.2574 25.9924 91.1677 24.8217 91.1677 21.3097V15.0061H89.624L89.9872 13.6553Z" fill="white"/>
<path d="M97.7961 8.97275L99.5214 8.61255V15.5465C99.703 15.2763 99.9754 15.0062 100.248 14.736C100.883 14.1057 101.701 13.7455 102.609 13.4753C106.15 12.7549 108.693 15.0062 108.693 18.6082V25.5422H106.967V19.2386C106.967 16.357 105.605 14.8261 103.244 14.9161C100.883 14.9161 99.4306 16.447 99.4306 18.9684V25.6322H97.7053V8.97275H97.7961Z" fill="white"/>
<path d="M111.145 17.0771C111.962 15.096 113.687 13.7452 115.867 13.385C119.59 12.8447 122.768 15.4562 122.949 19.1483C122.949 19.4185 122.949 19.6886 122.949 19.8687H112.507C112.507 19.9588 112.507 20.0488 112.507 20.1389C112.598 21.6698 113.415 22.9305 114.868 23.6509C116.684 24.5514 118.863 24.1912 120.498 22.6603C120.588 22.5703 120.679 22.4802 120.77 22.3902L122.041 23.2907C121.678 23.7409 121.224 24.1011 120.77 24.4614C119.136 25.632 117.229 25.9022 115.322 25.3619C111.78 24.3713 110.055 21.3996 110.781 18.0677C110.872 17.8876 111.054 17.5274 111.145 17.0771ZM121.315 18.6981V18.518V18.2478C121.315 18.0677 121.224 17.9777 121.224 17.7075C120.679 15.9965 119.136 14.8259 117.229 14.7358C115.231 14.7358 113.596 15.9065 112.961 17.7976C112.87 18.0677 112.779 18.4279 112.779 18.6981H121.315Z" fill="white"/>
<path d="M132.393 13.2952C135.662 13.7454 137.75 16.1768 137.75 19.5087C137.75 22.8406 135.753 25.272 132.393 25.7222C128.034 26.3526 124.856 23.561 124.856 19.5087C124.856 15.4564 128.034 12.6648 132.393 13.2952ZM130.486 24.1914C131.031 24.2814 131.485 24.2814 132.03 24.1914C134.663 23.7411 136.298 21.4898 135.753 18.5181C135.571 17.5276 135.117 16.6271 134.391 15.9967C133.573 15.2763 132.484 14.826 131.213 14.826C129.941 14.826 128.852 15.2763 128.034 15.9967C127.126 16.8072 126.581 18.0679 126.581 19.5087C126.672 22.0301 128.216 23.8312 130.486 24.1914Z" fill="white"/>
<path d="M140.111 13.6554H141.837V15.3664C141.927 15.2763 141.927 15.1863 142.018 15.0962C142.835 13.9256 143.925 13.3853 145.287 13.3853C145.469 13.3853 145.65 13.3853 145.741 13.3853V15.0062C145.56 15.0062 145.378 14.9161 145.196 14.9161C144.107 14.8261 143.199 15.2763 142.563 15.9067C142.018 16.537 141.837 17.1674 141.837 18.248V25.5422H140.111V13.6554Z" fill="white"/>
<path d="M147.194 13.6553H148.919V20.139C148.919 22.6604 149.736 23.8311 151.734 24.1913C152.279 24.2813 152.824 24.2813 153.369 24.1913C155.366 23.8311 156.274 22.6604 156.274 20.4992V13.6553H158V25.0918C158 28.3336 155.548 30.4949 150.644 30.2247C150.372 30.2247 150.1 30.1347 149.827 30.1347V28.6938C150.1 28.7839 150.372 28.7839 150.644 28.7839C154.458 28.964 156.274 27.4331 156.274 24.8216V23.741C156.184 23.9211 156.093 24.0112 156.002 24.1012C155.003 25.2719 153.732 25.8122 152.097 25.8122C149.192 25.8122 147.375 24.1012 147.194 21.4897C147.194 21.1295 147.194 21.1295 147.194 20.4992V13.6553Z" fill="white"/>
<path d="M89.3515 20.4993C89.3515 20.1391 89.3515 19.8689 89.3515 19.5087C89.2607 15.9967 86.809 13.5654 83.4492 13.3853C82.632 13.3853 81.8148 13.4753 80.9975 13.7455C78.909 14.4659 77.4561 16.1768 77.0021 18.248C76.2757 21.3998 78.001 24.7317 81.6331 25.7223C84.0849 26.4427 86.355 25.7223 88.1711 23.9213C88.2619 23.8312 88.3527 23.7412 88.4435 23.5611L85.8102 21.8501C85.7193 21.9401 85.7194 21.9401 85.6286 22.0302C85.1745 22.5705 84.7205 22.8406 84.1757 23.0207C83.2676 23.2909 82.4504 23.2008 81.8148 22.8406C80.9067 22.3003 80.3619 21.3998 80.4527 20.6794H89.3515V20.4993ZM83.54 15.7266C84.9929 15.7266 86.1734 16.7172 86.2642 18.158V18.3381H80.4527C80.5435 18.158 80.5435 17.9779 80.6343 17.7978C81.0883 16.537 82.2688 15.7266 83.54 15.7266Z" fill="white"/>
<path d="M28.0586 26.8928C25.7885 27.253 24.6988 25.3619 25.4253 23.741C26.0609 22.3903 26.3333 20.9494 26.3333 19.4186C26.3333 17.8877 26.0609 16.4469 25.4253 15.0961C24.8805 13.7453 25.7885 11.5841 28.0586 11.9443C29.2391 12.1244 30.2379 10.9537 30.2379 9.42287C30.2379 7.89199 29.3299 6.36112 28.0586 6.09097C26.7874 5.73076 25.6977 6.90143 25.6977 8.6124C25.6977 11.5841 24.0632 12.7548 22.7011 11.6741C21.5207 10.6836 20.1586 10.0532 18.6149 9.78307C16.9805 9.51292 15.4368 9.78307 13.9839 10.4134C13.8023 10.5035 13.7115 10.5035 13.5299 10.5035C11.9862 10.6836 9.53448 8.88256 9.53448 5.28051C9.53448 3.11928 7.62759 0.777942 5.17586 0.147583C2.45172 -0.482776 0.0908046 0.958044 0.0908046 3.47948C0.0908046 6.00092 2.36092 8.34225 5.08506 8.70246C8.80805 9.24276 10.6241 11.404 10.2609 13.205C10.2609 13.3851 10.1701 13.5652 9.98851 13.7453C8.98965 15.2762 8.35402 17.2573 8.35402 19.5086C8.35402 21.5798 8.89885 23.4709 9.8977 25.0017C9.98851 25.1818 10.0793 25.3619 10.0793 25.542C10.3517 27.163 8.80805 29.6844 4.99425 30.2247C2.36092 30.5849 0 32.9263 0 35.4477C0 37.9691 2.27011 39.4099 4.99425 38.6895C7.44598 38.0592 9.35287 35.8079 9.35287 33.5566C9.35287 30.0446 11.5322 27.9734 13.3483 28.3336C13.4391 28.3336 13.6207 28.4237 13.7115 28.4237C15.1644 29.1441 16.7989 29.4143 18.5241 29.1441C20.0678 28.8739 21.4299 28.2436 22.6103 27.3431C23.7 26.5326 25.6069 27.4331 25.6069 30.3148C25.6069 32.0257 26.6966 33.1064 27.9678 32.7462C29.1483 32.476 30.1471 30.9451 30.1471 29.4143C30.1471 27.8834 29.2391 26.7127 28.0586 26.8928ZM18.5241 25.542C15.346 25.9023 12.4402 23.2007 12.4402 19.5086C12.4402 15.8165 15.346 13.115 18.5241 13.4752C21.4299 13.8354 23.5184 16.5369 23.5184 19.5086C23.5184 22.4803 21.4299 25.1818 18.5241 25.542Z" fill="white"/>
</svg>
