<svg width="152" height="24" viewBox="0 0 152 24" fill="none" xmlns="http://www.w3.org/2000/svg">
<path d="M10.6819 23.9289C7.93295 23.9289 3.1391 23.319 0.295972 19.5431L2.8521 17.9377C4.42613 19.7315 6.8253 20.6553 10.1707 20.7943C16.5924 20.8077 17.9377 18.8346 17.9377 17.1574C17.9377 13.83 14.0542 13.4129 10.4128 13.2874C3.97769 13.0721 0 11.9375 0 6.95534C0 3.58754 2.69066 0 10.1707 0C14.2739 0 17.3458 1.11662 19.727 3.49337L17.2561 5.49342C15.4324 4.02127 13.173 3.19352 10.8299 3.1391C5.66383 3.1391 3.04493 4.35886 3.04493 6.80736C3.04493 9.84332 6.3051 10.1976 10.5698 10.3501C17.7449 10.5832 20.9288 12.673 20.9288 17.1215C20.9288 20.2606 18.2471 23.9289 10.6819 23.9289Z" fill="white"/>
<path d="M92.1461 0.367676H95.2269V23.5611H91.5452L77.343 4.58304V23.5611H74.2622V0.367676H77.9439L92.1461 19.3458V0.367676Z" fill="white"/>
<path d="M113.904 10.8613H122.766V18.3862C120.739 21.8033 116.716 23.7675 111.68 23.7675C103.931 23.7675 99.1238 19.2158 99.1238 11.9286C99.1059 3.18845 105.608 0.0717773 111.694 0.0717773C115.075 0.0717773 117.972 0.937272 120.124 2.58754L117.882 4.79388C116.313 3.70416 114.232 3.13912 111.694 3.13912C105.653 3.13912 102.187 6.33652 102.187 11.9151C102.187 17.4938 105.563 20.6508 111.694 20.6508C114.68 20.6508 117.227 19.8077 118.869 18.283L119.254 17.9243V13.5026H113.904V10.8613Z" fill="white"/>
<path d="M48.9924 0.345337H69.9571V3.36784H48.9924V0.345337Z" fill="white"/>
<path d="M48.9924 20.3997H69.9571V23.4266H48.9924V20.3997Z" fill="white"/>
<path d="M48.9924 10.3365H69.9571V13.3635H48.9924V10.3365Z" fill="white"/>
<path d="M123.945 23.5522H127.914L137.448 4.39477L147.488 23.467H151.372L139.304 0.345337H135.762L123.945 23.5522Z" fill="white"/>
<path d="M38.1447 0.408081H24.79V3.41713H38.1402C39.2389 3.41713 42.7098 3.50234 42.7098 7.30064C42.7098 8.43969 42.2614 11.0362 38.1178 11.0362H24.8125V23.5926H27.8933V14.1753H38.1447C43.0013 14.1753 45.7682 11.6685 45.7682 7.29616C45.7682 2.92384 43.0013 0.408081 38.1447 0.408081Z" fill="white"/>
</svg>
