<svg width="159" height="55" viewBox="0 0 159 55" fill="none" xmlns="http://www.w3.org/2000/svg">
<path d="M82.9244 15.8489C83.0891 15.9943 83.2529 16.1407 83.416 16.2879C83.4922 16.3566 83.5684 16.4254 83.6469 16.4961C86.7809 19.4833 88.5903 23.9942 88.7344 28.2718C88.832 33.1877 87.2939 37.7719 83.873 41.3545C83.7893 41.4414 83.7057 41.5284 83.6195 41.6179C83.5568 41.687 83.4941 41.7561 83.4295 41.8273C80.824 44.6123 76.7604 46.3441 72.9814 46.5175C68.2481 46.6608 63.8869 45.3662 60.3872 42.0801C60.1262 41.8268 59.8691 41.5699 59.6119 41.3128C59.551 41.2565 59.49 41.2002 59.4272 41.1423C57.1407 38.999 55.7285 35.8813 55.0342 32.8694C55.0176 32.8006 55.0009 32.7318 54.9838 32.6609C53.993 28.4003 54.9508 23.5216 57.2047 19.8291C59.5859 16.0706 63.3375 13.0766 67.7173 12.0535C73.245 10.8641 78.6419 12.1236 82.9244 15.8489ZM68.6656 15.3724C68.5962 15.3882 68.5268 15.404 68.4552 15.4204C64.8261 16.2772 61.7157 18.7304 59.7701 21.871C57.8297 25.1189 57.3057 28.9592 58.1945 32.6314C58.4545 33.6105 58.8473 34.5122 59.3067 35.4126C59.3823 35.5633 59.3823 35.5633 59.4593 35.717C61.1637 38.9868 64.2562 41.4205 67.7501 42.5335C71.5128 43.5688 75.343 43.1561 78.7493 41.2436C79.7204 40.6755 80.5661 39.9473 81.3815 39.1765C81.464 39.1006 81.5465 39.0246 81.6314 38.9464C84.0721 36.621 85.5766 33.1757 85.6747 29.8065C85.7257 26.1397 84.7266 22.752 82.297 19.9501C82.225 19.8658 82.1531 19.7815 82.0789 19.6946C79.8374 17.1312 76.5696 15.3378 73.1416 15.0672C71.6282 14.9996 70.1434 15.0229 68.6656 15.3724Z" fill="white"/>
<path d="M0 12.1171C1.20852 12.1171 2.41703 12.1171 3.66217 12.1171C3.77337 12.3966 3.88457 12.6761 3.99914 12.9642C6.03819 18.0897 8.07875 23.2147 10.1282 28.3362C10.1695 28.4395 10.2109 28.5428 10.2535 28.6493C10.6251 29.5778 10.9967 30.5063 11.3684 31.4348C11.9554 32.9011 12.5422 34.3676 13.1287 35.8341C13.1904 35.9883 13.1904 35.9883 13.2533 36.1455C13.4543 36.6482 13.6554 37.151 13.8565 37.6537C14.1885 38.4838 14.5205 39.3138 14.8525 40.1439C15.0055 40.5262 15.1584 40.9085 15.3113 41.2907C15.3851 41.4751 15.3851 41.4751 15.4603 41.6632C15.4946 41.749 15.5289 41.8347 15.5642 41.9231C16.247 40.2831 16.9236 38.6415 17.5743 36.9885C17.8 36.4153 18.0267 35.8424 18.2532 35.2695C18.2785 35.2056 18.3037 35.1418 18.3297 35.076C19.0771 33.1852 19.8294 31.2964 20.5813 29.4074C20.7823 28.9022 20.9833 28.3971 21.1843 27.892C21.4313 27.2715 21.6782 26.6509 21.9252 26.0304C22.4833 24.6281 23.0412 23.2258 23.599 21.8234C23.7283 21.4984 23.8576 21.1734 23.9869 20.8484C24.029 20.7423 24.0712 20.6363 24.1147 20.5271C24.199 20.3151 24.2833 20.1031 24.3676 19.8911C24.5714 19.379 24.7751 18.8669 24.9787 18.3547C25.806 16.2747 26.6339 14.195 27.4663 12.1171C28.6748 12.1171 29.8833 12.1171 31.1284 12.1171C30.9373 12.6905 30.7452 13.2486 30.5169 13.8059C30.4879 13.8773 30.4589 13.9487 30.4291 14.0222C30.334 14.2562 30.2385 14.49 30.143 14.7238C30.075 14.8908 30.007 15.0578 29.9391 15.2248C29.7257 15.7489 29.5116 16.2727 29.2974 16.7965C29.2633 16.8797 29.2293 16.9628 29.1943 17.0485C28.7895 18.0376 28.3837 19.0263 27.9775 20.0148C27.6372 20.843 27.2973 21.6714 26.9575 22.4998C26.788 22.913 26.6185 23.3262 26.449 23.7394C26.3812 23.9047 26.3134 24.07 26.2456 24.2353C20.9558 37.1292 20.9558 37.1292 20.854 37.3771C20.7862 37.5425 20.7183 37.708 20.6504 37.8734C20.4817 38.2847 20.313 38.696 20.1442 39.1073C19.8293 39.8746 19.5146 40.642 19.2004 41.4096C19.0536 41.768 18.9068 42.1264 18.76 42.4847C18.6908 42.6539 18.6216 42.823 18.5524 42.9921C18.4558 43.2283 18.3591 43.4644 18.2624 43.7005C18.2351 43.7673 18.2078 43.8341 18.1797 43.903C17.8925 44.6031 17.5918 45.2963 17.2936 45.9921C16.0851 45.9921 14.8765 45.9921 13.6314 45.9921C13.472 45.5914 13.3125 45.1907 13.1482 44.7778C12.3251 42.7162 11.4828 40.6624 10.6427 38.6077C10.2186 37.5704 9.79509 36.5328 9.3716 35.4952C9.32997 35.3932 9.28834 35.2912 9.24545 35.1862C8.29137 32.8488 7.33895 30.5108 6.38664 28.1727C6.10557 27.4826 5.82446 26.7926 5.54332 26.1025C5.49719 25.9893 5.45105 25.876 5.40352 25.7594C5.17111 25.1889 4.93869 24.6185 4.70626 24.048C4.28085 23.0039 3.85548 21.9598 3.43037 20.9155C3.28521 20.559 3.14003 20.2024 2.99484 19.8459C2.80608 19.3824 2.61744 18.9188 2.42888 18.4552C1.99749 17.3951 1.56421 16.3359 1.12535 15.2789C1.04791 15.092 0.97047 14.905 0.893041 14.718C0.751073 14.3752 0.608201 14.0329 0.464775 13.6907C0.40227 13.5399 0.339798 13.3892 0.277365 13.2384C0.248876 13.1712 0.220388 13.104 0.191036 13.0348C0.0526789 12.6983 0 12.4888 0 12.1171Z" fill="white"/>
<path d="M52.3937 0C52.4826 0.000532726 52.5716 0.00106545 52.6632 0.00161432C52.7593 0.00194215 52.8554 0.00226998 52.9543 0.00260775C53.0554 0.00346011 53.1564 0.00431247 53.2605 0.00519066C53.3619 0.00564962 53.4634 0.00610858 53.5679 0.00658146C53.8193 0.00778469 54.0708 0.00946131 54.3223 0.0115486C54.2501 0.50995 54.0591 0.947841 53.8673 1.4095C53.8312 1.4973 53.7952 1.58511 53.758 1.67557C53.6392 1.96456 53.5198 2.25328 53.4004 2.54201C53.317 2.74461 53.2336 2.94722 53.1503 3.14986C52.9796 3.56487 52.8086 3.97977 52.6375 4.3946C52.412 4.94122 52.1873 5.48816 51.9631 6.03529C51.9129 6.15767 51.9129 6.15767 51.8618 6.28251C51.7952 6.44489 51.7287 6.60726 51.6621 6.76964C51.4954 7.17634 51.3285 7.58295 51.1616 7.98956C50.7909 8.89257 50.4204 9.79564 50.0499 10.6987C49.8803 11.1122 49.7107 11.5256 49.5411 11.939C49.4733 12.1043 49.4055 12.2696 49.3376 12.435C45.6755 21.3615 45.6755 21.3615 45.5737 21.6095C45.5059 21.7747 45.4381 21.94 45.3703 22.1053C45.2006 22.5191 45.0308 22.9329 44.861 23.3467C44.5585 24.0839 44.2561 24.8212 43.9539 25.5585C43.7882 25.9631 43.6224 26.3676 43.4566 26.7721C43.4233 26.8531 43.3901 26.9341 43.3559 27.0176C42.8409 28.2737 42.323 29.5285 41.804 30.783C41.0832 32.5258 40.3665 34.2702 39.6545 36.0165C39.6118 36.1213 39.5691 36.2261 39.525 36.3341C39.4395 36.5439 39.3539 36.7537 39.2684 36.9635C39.2267 37.0659 39.1849 37.1683 39.1419 37.2738C39.1006 37.3752 39.0592 37.4767 39.0166 37.5812C38.6242 38.5436 38.2306 39.5055 37.8361 40.4671C37.8036 40.5464 37.7711 40.6256 37.7376 40.7073C37.2303 41.9437 36.7201 43.1788 36.2093 44.4137C36.1692 44.5108 36.1291 44.6078 36.0877 44.7078C36.0477 44.8045 36.0078 44.9012 35.9666 45.0008C35.3162 46.5736 34.6706 48.1483 34.0277 49.7242C33.9633 49.8821 33.9633 49.8821 33.8976 50.0431C33.4935 51.0338 33.0898 52.0247 32.6882 53.0165C32.6346 53.1488 32.5809 53.2811 32.5273 53.4134C32.4331 53.6457 32.3392 53.8781 32.2455 54.1107C32.2059 54.2084 32.1663 54.3062 32.1255 54.4069C32.0921 54.4897 32.0587 54.5725 32.0243 54.6578C31.9423 54.8424 31.9423 54.8424 31.8406 54.9441C31.6817 54.9529 31.5225 54.955 31.3634 54.954C31.2673 54.9537 31.1713 54.9534 31.0723 54.953C30.9713 54.9522 30.8702 54.9513 30.7661 54.9505C30.6647 54.95 30.5633 54.9495 30.4588 54.9491C30.2073 54.9479 29.9558 54.9462 29.7043 54.9441C29.7765 54.4457 29.9675 54.0078 30.1593 53.5462C30.1954 53.4583 30.2315 53.3705 30.2686 53.2801C30.3874 52.9911 30.5068 52.7024 30.6262 52.4136C30.7097 52.211 30.793 52.0084 30.8763 51.8058C31.0471 51.3908 31.218 50.9759 31.3891 50.5611C31.6146 50.0144 31.8393 49.4675 32.0635 48.9204C32.097 48.8388 32.1304 48.7572 32.1649 48.6731C32.2314 48.5108 32.298 48.3484 32.3645 48.186C32.5312 47.7793 32.6981 47.3727 32.865 46.9661C33.2357 46.0631 33.6062 45.16 33.9767 44.2569C34.1463 43.8435 34.3159 43.4301 34.4855 43.0166C34.5533 42.8513 34.6211 42.686 34.689 42.5207C38.046 34.338 41.4029 26.1554 48.1169 9.79005C48.1673 9.66732 48.1673 9.66732 48.2186 9.54212C48.2865 9.37672 48.3543 9.21133 48.4222 9.04594C48.5912 8.63402 48.7602 8.2221 48.9292 7.81018C49.2409 7.05024 49.5527 6.29032 49.8645 5.53042C49.9724 5.26765 50.0802 5.00487 50.188 4.7421C50.327 4.40336 50.466 4.06463 50.6051 3.72592C50.8946 3.02055 51.1838 2.31504 51.4707 1.60858C51.5141 1.50198 51.5574 1.39538 51.6021 1.28554C51.6792 1.09574 51.7561 0.905855 51.8327 0.715864C52.1174 0.0153653 52.1174 0.0153653 52.3937 0Z" fill="white"/>
<path d="M122.511 18.3859C122.939 18.735 123.22 19.1724 123.497 19.6447C123.729 19.4214 123.922 19.2107 124.107 18.9454C124.645 18.289 125.629 17.9435 126.447 17.8137C127.604 17.7133 128.752 17.8979 129.686 18.6195C130.707 19.6035 130.897 20.976 130.931 22.3273C130.934 22.7094 130.934 23.0913 130.933 23.4734C130.932 23.6132 130.932 23.753 130.932 23.8928C130.932 24.2569 130.931 24.6209 130.93 24.985C130.929 25.3581 130.928 25.7311 130.928 26.1042C130.927 26.8333 130.925 27.5624 130.923 28.2915C130.453 28.2915 129.983 28.2915 129.499 28.2915C129.497 28.1069 129.494 27.9222 129.492 27.7319C129.485 27.1172 129.478 26.5025 129.469 25.8878C129.464 25.5156 129.46 25.1434 129.456 24.7712C129.452 24.4111 129.447 24.0509 129.442 23.6908C129.439 23.4887 129.437 23.2865 129.435 23.0844C129.429 21.3188 129.429 21.3188 128.642 19.7945C128.029 19.2504 127.471 19.1976 126.68 19.2128C125.976 19.2654 125.395 19.4698 124.877 19.9591C123.969 21.0661 123.977 22.6099 123.963 23.9701C123.961 24.0947 123.959 24.2193 123.957 24.3476C123.951 24.7403 123.946 25.1331 123.942 25.5258C123.938 25.7943 123.934 26.0627 123.93 26.3311C123.92 26.9846 123.911 27.638 123.904 28.2915C123.467 28.2915 123.031 28.2915 122.581 28.2915C122.578 28.0153 122.578 28.0153 122.575 27.7335C122.568 27.12 122.56 26.5065 122.552 25.893C122.547 25.5217 122.542 25.1503 122.538 24.7789C122.534 24.4194 122.53 24.0599 122.524 23.7005C122.522 23.4989 122.52 23.2974 122.518 23.0959C122.499 21.9418 122.452 20.8637 121.869 19.8482C121.819 19.6971 121.819 19.6971 121.767 19.543C121.526 19.4226 121.526 19.4226 121.259 19.3396C121.158 19.306 121.057 19.2724 120.953 19.2378C119.958 19.1352 119.063 19.3338 118.27 19.9626C117.313 20.8769 117.101 22.2212 117.067 23.4873C117.063 23.7112 117.059 23.935 117.056 24.1589C117.054 24.2774 117.051 24.3959 117.049 24.518C117.043 24.8942 117.037 25.2704 117.031 25.6466C117.026 25.9027 117.022 26.1587 117.017 26.4147C117.006 27.0403 116.996 27.6659 116.986 28.2915C116.516 28.2915 116.046 28.2915 115.562 28.2915C115.528 24.9345 115.495 21.5775 115.46 18.1188C115.93 18.1188 116.4 18.1188 116.884 18.1188C116.952 18.5888 117.019 19.0588 117.088 19.543C117.184 19.4213 117.281 19.2996 117.38 19.1742C118.627 17.7597 120.901 17.2821 122.511 18.3859Z" fill="white"/>
<path d="M157.372 11.6084C157.808 11.6084 158.244 11.6084 158.694 11.6084C158.694 17.1139 158.694 22.6193 158.694 28.2916C158.258 28.2916 157.821 28.2916 157.372 28.2916C157.321 27.5363 157.321 27.5363 157.27 26.7657C157.173 26.8874 157.077 27.0091 156.977 27.1345C156.204 28.0153 155.156 28.4381 154.015 28.5968C152.279 28.7002 150.85 28.3834 149.507 27.2489C148.55 26.3426 147.94 25.0374 147.89 23.7135C147.86 21.9823 148.186 20.5439 149.411 19.2447C150.547 18.2033 151.976 17.7714 153.497 17.7923C154.858 17.8852 156.108 18.3426 157.066 19.3396C157.167 19.4907 157.167 19.4907 157.27 19.6448C157.303 16.9928 157.337 14.3408 157.372 11.6084ZM150.219 20.4841C149.831 20.9411 149.611 21.4141 149.437 21.9845C149.408 22.076 149.408 22.076 149.378 22.1693C149.12 23.5158 149.387 24.7689 150.148 25.8963C150.723 26.6254 151.478 27.0879 152.387 27.2743C153.718 27.4249 154.844 27.2112 155.948 26.422C156.847 25.6919 157.371 24.6266 157.499 23.4838C157.548 22.4988 157.26 21.4978 156.621 20.7404C156.567 20.681 156.512 20.6216 156.456 20.5604C156.403 20.4978 156.349 20.4353 156.294 20.3708C155.626 19.6369 154.68 19.1818 153.69 19.1139C152.256 19.0768 151.218 19.4386 150.219 20.4841Z" fill="white"/>
<path d="M140.485 33.2763C140.549 33.3222 140.614 33.3681 140.68 33.4154C141.706 34.2171 142.263 35.4287 142.481 36.6921C142.67 38.3872 142.337 39.9217 141.287 41.2877C140.391 42.2752 139.074 42.9506 137.738 43.0421C137.599 43.0543 137.599 43.0543 137.456 43.0668C136.217 43.1233 134.85 42.8106 133.873 42.0249C133.52 41.6724 133.52 41.6724 133.161 41.3128C133.127 43.4277 133.094 45.5426 133.059 47.7216C132.589 47.7216 132.119 47.7216 131.635 47.7216C131.635 42.7196 131.635 37.7177 131.635 32.5642C132.105 32.5642 132.575 32.5642 133.059 32.5642C133.093 33.0342 133.126 33.5042 133.161 33.9884C133.266 33.8688 133.37 33.7492 133.479 33.626C135.31 31.7974 138.45 31.7956 140.485 33.2763ZM133.898 34.9739C133.065 35.9801 132.861 37.0915 132.957 38.3627C133.193 39.4142 133.781 40.405 134.687 41.0076C135.866 41.676 137.021 41.961 138.374 41.6116C139.33 41.2767 140.18 40.6056 140.631 39.6955C141.185 38.421 141.251 37.2408 140.79 35.9212C140.332 34.9045 139.59 34.1735 138.557 33.7536C136.882 33.1869 135.101 33.7063 133.898 34.9739Z" fill="white"/>
<path d="M142.621 18.7293C142.718 18.7966 142.718 18.7966 142.817 18.8652C143.816 19.6304 144.252 20.7861 144.452 21.9846C144.452 22.5217 144.452 23.0588 144.452 23.6122C141.632 23.6122 138.812 23.6122 135.907 23.6122C136.428 25.2781 136.709 26.0975 138.12 26.9791C138.981 27.3941 140.253 27.2792 141.146 27.0137C141.918 26.7148 142.553 26.2258 143.028 25.545C143.495 25.6962 143.784 25.9367 144.147 26.2571C143.854 27.1113 143.229 27.6094 142.457 28.0294C141.062 28.7001 139.41 28.8385 137.918 28.3962C136.656 27.9275 135.699 27.1496 135.093 25.9392C134.417 24.4605 134.269 22.8052 134.799 21.2455C135.014 20.7066 135.247 20.2089 135.602 19.7466C135.642 19.6907 135.682 19.6349 135.723 19.5773C136.467 18.6131 137.602 18.1275 138.755 17.8392C140.16 17.7221 141.459 17.8809 142.621 18.7293ZM136.721 20.4587C136.29 21.0159 136.009 21.5739 136.009 22.2898C138.325 22.2898 140.641 22.2898 143.028 22.2898C142.894 21.2158 142.613 20.5149 141.764 19.8241C140.036 18.64 138.104 18.943 136.721 20.4587Z" fill="white"/>
<path d="M157.575 33.1746C158.337 33.9379 158.535 34.8584 158.539 35.9061C158.541 36.0003 158.542 36.0944 158.544 36.1914C158.549 36.4956 158.551 36.7997 158.554 37.1038C158.557 37.3134 158.56 37.523 158.564 37.7327C158.569 38.0482 158.574 38.3637 158.578 38.6792C158.591 39.6041 158.617 40.5282 158.65 41.4526C158.656 41.6508 158.656 41.6508 158.663 41.853C158.673 42.1477 158.684 42.4423 158.694 42.7369C158.258 42.7369 157.821 42.7369 157.372 42.7369C157.304 42.3005 157.237 41.8641 157.168 41.4145C157.067 41.5383 156.967 41.662 156.863 41.7896C156.111 42.6394 155.236 42.9761 154.108 43.0675C152.978 43.0908 151.826 42.92 150.955 42.1409C150.351 41.4862 150.092 40.8371 150.104 39.9521C150.105 39.8759 150.106 39.7997 150.107 39.7211C150.135 38.8651 150.346 38.3323 150.963 37.7269C152.362 36.57 154.175 36.5137 155.903 36.5252C156.1 36.5259 156.1 36.5259 156.302 36.5266C156.625 36.5278 156.947 36.5295 157.27 36.5316C157.257 36.4282 157.244 36.3248 157.231 36.2183C157.201 35.9717 157.171 35.7251 157.141 35.4785C157.022 34.8869 156.813 34.4673 156.323 34.1005C155.437 33.5247 154.32 33.5708 153.305 33.7309C152.743 33.8805 152.281 34.1539 151.8 34.476C151.573 34.5988 151.573 34.5988 151.166 34.5988C150.993 34.4537 150.993 34.4537 150.836 34.2618C150.783 34.1992 150.73 34.1367 150.675 34.0722C150.556 33.8867 150.556 33.8867 150.556 33.5815C152.435 32.0417 155.588 31.6093 157.575 33.1746ZM151.878 38.7696C151.582 39.1617 151.497 39.5007 151.471 39.9903C151.58 40.5641 151.761 40.989 152.252 41.329C153.063 41.8135 153.968 41.8361 154.89 41.6728C155.807 41.3972 156.492 40.9016 156.949 40.0551C157.219 39.4379 157.279 38.8467 157.274 38.1779C157.273 38.0787 157.273 37.9795 157.272 37.8772C157.271 37.8024 157.271 37.7276 157.27 37.6506C154.394 37.5415 154.394 37.5415 151.878 38.7696Z" fill="white"/>
<path d="M122.065 32.9106C122.527 33.2652 122.905 33.7399 123.09 34.2934C122.687 34.5284 122.284 34.7634 121.869 35.0055C121.462 34.5986 121.462 34.5986 121.29 34.3443C120.792 33.8053 120.205 33.6565 119.485 33.6259C118.841 33.6463 118.322 33.809 117.8 34.1917C117.512 34.5244 117.42 34.7659 117.393 35.209C117.465 35.5669 117.547 35.7656 117.794 36.0355C118.518 36.4793 119.31 36.6586 120.133 36.8303C121.202 37.0569 122.332 37.3072 122.988 38.2608C123.425 39.1085 123.455 40.0924 123.211 41.0122C122.88 41.7497 122.311 42.322 121.582 42.6704C120.173 43.2053 118.71 43.1728 117.301 42.6211C116.492 42.2354 115.945 41.7637 115.46 41.0074C115.46 40.9403 115.46 40.8731 115.46 40.804C115.694 40.6248 115.694 40.6248 116.001 40.4289C116.101 40.3634 116.201 40.298 116.305 40.2306C116.395 40.1848 116.486 40.139 116.579 40.0919C116.926 40.2076 116.998 40.2998 117.19 40.6005C117.19 40.6677 117.19 40.7348 117.19 40.804C117.275 40.8463 117.275 40.8463 117.361 40.8894C117.523 40.9704 117.684 41.0523 117.844 41.135C117.973 41.2009 117.973 41.2009 118.105 41.2681C118.234 41.3344 118.234 41.3344 118.366 41.402C119.034 41.7093 119.836 41.7559 120.533 41.5184C120.967 41.3086 121.368 41.0908 121.666 40.7022C121.762 40.4122 121.79 40.2039 121.799 39.9011C121.803 39.8154 121.807 39.7296 121.811 39.6413C121.752 39.2863 121.61 39.1266 121.36 38.8712C120.549 38.3591 119.518 38.1944 118.594 37.997C117.605 37.7715 116.762 37.3796 116.172 36.5314C115.783 35.8491 115.82 35.0638 115.998 34.3185C116.234 33.5749 116.859 33.0067 117.53 32.6356C118.968 31.974 120.705 32.1088 122.065 32.9106Z" fill="white"/>
</svg>
