<svg width="158" height="24" viewBox="0 0 158 24" fill="none" xmlns="http://www.w3.org/2000/svg">
<path d="M21.353 11.6138C22.6969 10.8128 23.8914 8.97068 23.8914 6.72814C23.8914 4.80591 23.2195 3.20405 22.0996 2.00267C20.9797 0.80128 19.4118 0.0804443 16.948 0.0804443H1.41855C0.447965 0.0804443 0 0.561001 0 1.52212V21.8656C0 22.8268 0.447965 23.3073 1.41855 23.3073H16.948C19.7851 23.3073 21.4276 22.4263 22.5475 21.0647C23.4435 19.9434 24.0408 18.5017 24.0408 16.98C24.1154 14.5772 23.0702 12.4948 21.353 11.6138ZM16.5 4.96609C17.5453 4.96609 18.0679 5.20637 18.5159 5.68692C18.8892 6.08738 19.1878 6.64804 19.1878 7.36887C19.1878 8.00961 18.9638 8.57025 18.5159 9.05087C18.0679 9.45124 17.5453 9.77165 16.5 9.77165H4.77829V6.80822L2.61313 4.96609H16.5ZM18.6652 17.7809C18.2172 18.2614 17.6946 18.5017 16.5747 18.5017H5.30092C4.92761 18.5017 4.77829 18.3416 4.77829 17.9411V13.6962H16.5747C17.6946 13.6962 18.2172 14.0166 18.6652 14.4171C19.0385 14.8976 19.3371 15.4583 19.3371 16.099C19.3371 16.7397 19.0385 17.3003 18.6652 17.7809Z" fill="white"/>
<path d="M41.5119 0.0804443H37.1815C33.0752 0.0804443 30.0141 1.76239 27.9982 4.32535C26.4304 6.32766 25.5344 8.89063 25.5344 11.6939C25.5344 14.8174 26.6544 17.6207 28.5209 19.7031C30.5368 21.9457 33.2992 23.3874 37.1815 23.3874H41.5119C45.3942 23.3874 48.1567 22.0258 50.1725 19.7833C52.039 17.7008 53.1589 14.8976 53.1589 11.774C53.1589 8.97068 52.263 6.40776 50.6951 4.40545C48.6793 1.76239 45.6183 0.0804443 41.5119 0.0804443ZM46.8128 16.179C45.6929 17.5406 44.0503 18.5017 41.8106 18.5017H36.8082C34.5684 18.5017 32.9259 17.5406 31.8059 16.179C30.91 14.9777 30.3127 13.3758 30.3127 11.774C30.3127 10.1721 30.8354 8.49017 31.7313 7.36887C32.8513 5.9272 34.4937 4.96609 36.8082 4.96609H41.8106C44.125 4.96609 45.7675 5.9272 46.8874 7.36887C47.7834 8.57026 48.306 10.1721 48.306 11.774C48.306 13.3758 47.7834 15.0578 46.8128 16.179Z" fill="white"/>
<path d="M68.1653 0.0804443H56.5182C55.6223 0.0804443 55.0996 0.561001 55.0996 1.52212V21.8656C55.0996 22.8268 55.5475 23.3073 56.5182 23.3073H68.1653C72.0476 23.3073 74.81 21.8656 76.8259 19.623C78.6925 17.5406 79.8124 14.7374 79.8124 11.6138C79.8124 8.81053 78.9164 6.24758 77.3486 4.24526C75.3327 1.76239 72.3462 0.0804443 68.1653 0.0804443ZM68.4639 4.96609C70.7784 4.96609 72.4209 5.9272 73.5409 7.36887C74.4367 8.57026 74.9594 10.1721 74.9594 11.774C74.9594 13.3758 74.3621 14.9777 73.4661 16.179C72.3462 17.5406 70.7037 18.5818 68.4639 18.5818H60.4005C60.1019 18.5818 59.9526 18.4217 59.9526 18.1013V6.72814L57.7874 4.96609H68.4639Z" fill="white"/>
<path d="M103.779 0.0804443H98.4784C98.4037 0.0804443 98.3291 0.0804442 98.3291 0.160541L91.9829 7.20868L89.3698 10.1721L89.6685 7.28878L83.3222 0.240637C83.3222 0.0804442 83.2476 0.0804443 83.173 0.0804443H77.8721C77.6481 0.0804443 77.5734 0.320723 77.7227 0.480905L88.1752 12.0944C88.225 12.1477 88.2499 12.2012 88.2499 12.2545V23.067C88.2499 23.2272 88.3246 23.3073 88.4738 23.3073H92.8788C93.0281 23.3073 93.1029 23.2272 93.1029 23.067V12.5749C93.1029 12.4948 93.1029 12.4147 93.1775 12.4147L103.929 0.480905C104.078 0.320723 103.929 0.0804443 103.779 0.0804443Z" fill="white"/>
<path d="M154.547 4.32535C152.53 1.76239 149.544 0.0804443 145.363 0.0804443H142.227C138.121 0.0804443 135.06 1.76239 133.044 4.32535C131.476 6.32766 130.58 8.89063 130.58 11.6939C130.58 14.8174 131.701 17.6207 133.567 19.7031C135.583 21.9457 138.345 23.3874 142.227 23.3874H145.363C149.246 23.3874 152.008 22.0258 154.023 19.7833C155.89 17.7008 157.01 14.8976 157.01 11.774C157.085 8.89063 156.114 6.32766 154.547 4.32535ZM150.739 16.099C149.619 17.4606 147.976 18.4217 145.737 18.4217H142.003C139.764 18.4217 138.121 17.4606 137.001 16.099C136.105 14.8976 135.508 13.3758 135.508 11.774C135.508 10.1721 136.031 8.65035 136.926 7.52906C138.046 6.08739 139.689 5.12628 142.003 5.12628H145.737C148.051 5.12628 149.693 6.08739 150.814 7.52906C151.709 8.73045 152.232 10.2522 152.232 11.774C152.306 13.3758 151.709 14.8976 150.739 16.099Z" fill="white"/>
<path d="M121.474 5.04611H121.847C122.145 5.04611 122.444 5.1262 122.668 5.20629C123.489 5.52667 124.086 6.40768 124.086 7.36879C124.086 8.65028 123.042 9.77157 121.847 9.77157H110.573C107.213 9.77157 105.048 12.9753 105.048 16.5794V22.7466C105.048 23.0669 105.272 23.3873 105.645 23.3873H127.446C127.745 23.3873 128.043 23.147 128.043 22.7466V19.1424C128.043 18.8221 127.819 18.5017 127.446 18.5017H107.512L109.826 16.6595V16.179C109.826 16.0188 109.901 15.8586 109.901 15.6984C110.2 14.5771 111.021 14.0165 112.29 14.0165L122.893 13.9364C125.953 13.8563 129.014 10.7327 129.014 7.2887C129.014 -0.159909 122.294 0.000272377 122.294 0.000272377H106.915C106.616 0.000272377 106.317 0.240551 106.317 0.641012V4.32527C106.317 4.64565 106.541 4.96601 106.915 4.96601L121.474 5.04611Z" fill="white"/>
</svg>
