<svg width="174" height="51" viewBox="0 0 174 51" fill="none" xmlns="http://www.w3.org/2000/svg">
<mask id="mask0_9_161" style="mask-type:luminance" maskUnits="userSpaceOnUse" x="0" y="0" width="174" height="51">
<path d="M174 0H0V50.1753H174V0Z" fill="white"/>
</mask>
<g mask="url(#mask0_9_161)">
<path fill-rule="evenodd" clip-rule="evenodd" d="M25.0876 0C30.0495 0 34.8999 1.47136 39.0256 4.22803C43.1512 6.9847 46.3668 10.9028 48.2656 15.487C50.1644 20.0712 50.6612 25.1155 49.6932 29.982C48.7252 34.8485 46.3359 39.3187 42.8273 42.8273C39.3187 46.3359 34.8485 48.7252 29.982 49.6932C25.1155 50.6612 20.0712 50.1644 15.487 48.2656C10.9028 46.3668 6.9847 43.1512 4.22803 39.0256C1.47136 34.8999 0 30.0495 0 25.0876C0 18.434 2.64315 12.0528 7.348 7.348C12.0528 2.64315 18.434 0 25.0876 0ZM25.0876 3.40976C29.3751 3.40976 33.5663 4.68115 37.1312 7.06315C40.6961 9.44514 43.4746 12.8308 45.1154 16.7919C46.7561 20.753 47.1854 25.1117 46.349 29.3168C45.5125 33.5219 43.4479 37.3845 40.4162 40.4162C37.3845 43.4479 33.5219 45.5125 29.3168 46.349C25.1117 47.1854 20.753 46.7561 16.7919 45.1154C12.8308 43.4746 9.44514 40.6961 7.06315 37.1312C4.68115 33.5663 3.40976 29.3751 3.40976 25.0876C3.40976 19.3383 5.69368 13.8245 9.75907 9.75907C13.8245 5.69368 19.3383 3.40976 25.0876 3.40976Z" fill="white"/>
<path fill-rule="evenodd" clip-rule="evenodd" d="M30.0889 7.56897H33.5522V23.8426H16.6238V16.7874H20.0871V20.7823H30.0889V7.56897ZM16.6238 42.607H20.0871V29.078H23.3567V38.0733H26.82V29.078H30.0889V33.7489H33.5522V26.0177H16.6238V42.607Z" fill="white"/>
<path d="M66.2779 27.3977C71.0045 27.3977 73.529 24.9804 73.529 20.0922V8.22153H61.7655V12.3323H68.265V20.4145C68.265 22.2137 67.4326 23.154 65.902 23.154C64.693 23.154 63.6462 22.4823 62.6523 21.1933L59.752 24.631C61.2025 26.4302 63.539 27.3977 66.2786 27.3977M84.659 22.9125V19.4749H90.3752V15.4999H84.6583V12.3309H88.0035V8.22007H79.3943V27.0196H94.4882V22.9088L84.659 22.9125ZM103.711 27.0233H109.029V12.438H114.777V8.22153H97.9376V12.438H103.713L103.711 27.0233ZM125.586 27.3992C131.173 27.3992 133.912 24.606 133.912 21.3387C133.912 14.4098 123.249 16.5628 123.249 13.6801C123.249 12.7353 124.057 11.9837 126.284 11.9837C128.115 12.0298 129.906 12.5297 131.496 13.4386L133.134 9.48634C131.035 8.37333 128.688 7.80968 126.312 7.84789C120.727 7.84789 117.987 10.5874 117.987 13.9488C117.987 20.9357 128.676 18.765 128.676 21.7373C128.676 22.6505 127.817 23.2634 125.614 23.2634C123.416 23.2341 121.268 22.5958 119.411 21.4194L117.665 25.3313C119.438 26.5667 122.5 27.3992 125.588 27.3992M143.888 22.914V19.4749H152.24V15.4999H143.882V12.3309H153.363V8.22007H138.618V27.0196H153.712V22.9088L143.888 22.914ZM162.94 27.0248H168.257V12.438H174.004V8.22153H157.165V12.438H162.939L162.94 27.0248Z" fill="white"/>
<path d="M68.9917 42.2282L68.9792 33.3503H67.9515L64.3501 39.5899L60.6967 33.3503H59.6689V42.2282H60.8691V35.7985L64.033 41.1498H64.61L67.7738 35.7603L67.7863 42.2282H68.9917ZM75.5594 42.3295C76.4522 42.3058 77.3182 42.0194 78.0491 41.5061C78.7801 40.9929 79.3434 40.2755 79.6687 39.4437C79.994 38.6119 80.0669 37.7027 79.8782 36.8297C79.6894 35.9567 79.2475 35.1588 78.6077 34.5357C77.9678 33.9126 77.1585 33.4919 76.2808 33.3264C75.4031 33.1608 74.4962 33.2577 73.6733 33.605C72.8504 33.9522 72.1482 34.5343 71.6544 35.2786C71.1607 36.0228 70.8973 36.8961 70.8973 37.7893C70.8862 38.3989 71.0001 39.0044 71.232 39.5684C71.464 40.1324 71.809 40.6428 72.2459 41.0682C72.6827 41.4937 73.2021 41.8251 73.772 42.042C74.3419 42.2589 74.9502 42.3568 75.5594 42.3295ZM75.5594 41.2005C74.8837 41.2053 74.2218 41.0093 73.6577 40.6374C73.0935 40.2655 72.6525 39.7344 72.3906 39.1115C72.1287 38.4887 72.0577 37.802 72.1866 37.1387C72.3154 36.4754 72.6384 35.8653 73.1145 35.3858C73.5906 34.9064 74.1983 34.579 74.8607 34.4455C75.5231 34.3119 76.2102 34.378 76.8349 34.6354C77.4597 34.8929 77.9939 35.3301 78.3698 35.8916C78.7457 36.4531 78.9464 37.1135 78.9464 37.7893C78.9596 38.2387 78.8811 38.6862 78.7159 39.1044C78.5506 39.5226 78.302 39.9029 77.9852 40.222C77.6684 40.5411 77.2899 40.7924 76.8729 40.9606C76.4559 41.1288 76.009 41.2104 75.5594 41.2005ZM82.1088 42.2282H85.796C88.6083 42.2282 90.5205 40.4275 90.5205 37.7893C90.5205 35.151 88.6083 33.3503 85.796 33.3503H82.1088V42.2282ZM83.3567 41.1271V34.4558H85.719C87.8808 34.4558 89.2689 35.8007 89.2689 37.7915C89.2689 39.7823 87.8815 41.1271 85.719 41.1271H83.3567ZM93.6807 41.1271V38.2642H98.0675V37.1858H93.6807V34.4595H98.6049V33.3584H92.4328V42.2363H98.7825V41.1352L93.6807 41.1271ZM108.016 42.2282L105.942 39.2479C106.526 39.0567 107.031 38.6788 107.379 38.1722C107.726 37.6657 107.898 37.0588 107.867 36.4452C107.867 34.5175 106.492 33.3511 104.217 33.3511H100.805V42.2289H102.053V39.5275H104.215C104.402 39.5275 104.59 39.5151 104.764 39.5026L106.652 42.2289L108.016 42.2282ZM104.179 38.4485H102.056V34.4536H104.181C105.781 34.4536 106.618 35.1767 106.618 36.4444C106.618 37.7122 105.78 38.4485 104.181 38.4485M116.168 33.3503V39.9702L110.918 33.3503H109.89V42.2282H111.138V35.6083L116.388 42.2282H117.415V33.3503H116.168ZM126.817 33.3503H123.405V42.2282H124.653V39.5393H126.815C129.091 39.5393 130.465 38.3728 130.465 36.4452C130.465 34.5175 129.09 33.3511 126.815 33.3511M126.777 38.4367H124.653V34.4544H126.777C128.377 34.4544 129.214 35.1774 129.214 36.4452C129.214 37.7129 128.377 38.4367 126.777 38.4367ZM132.302 42.2282H133.55V33.3503H132.302V42.2282ZM136.176 42.2282H142.166V41.1271H137.429V33.3503H136.181L136.176 42.2282ZM150.175 42.2282H151.489L147.515 33.3503H146.277L142.313 42.2282H143.601L144.563 40.0084H149.213L150.175 42.2282ZM145 38.9939L146.888 34.6445L148.775 38.9939H145ZM154.087 42.2282H155.324V34.4536H158.324V33.3525H151.087V34.4536H154.086L154.087 42.2282ZM160.936 41.1271V38.2642H165.324V37.1858H160.936V34.4595H165.861V33.3584H159.688V42.2363H166.038V41.1352L160.936 41.1271ZM170.611 42.3317C172.923 42.3317 173.998 41.1653 173.998 39.8102C173.998 36.5531 168.698 37.9118 168.698 35.739C168.698 34.9631 169.336 34.3288 170.824 34.3288C171.676 34.3365 172.509 34.5874 173.223 35.0519L173.636 34.0374C172.795 33.5064 171.818 33.2331 170.824 33.2512C168.524 33.2512 167.474 34.4177 167.474 35.7896C167.474 39.0893 172.773 37.7217 172.773 39.8858C172.773 40.6595 172.124 41.2533 170.611 41.2533C169.558 41.2623 168.535 40.8982 167.724 40.2256L167.262 41.213C168.212 41.9683 169.398 42.3635 170.611 42.3288" fill="white"/>
</g>
</svg>
