<svg width="173" height="28" viewBox="0 0 173 28" fill="none" xmlns="http://www.w3.org/2000/svg">
<path fill-rule="evenodd" clip-rule="evenodd" d="M100.592 6.89893C100.87 6.89893 101.097 7.12582 101.097 7.37793V26.5764C101.097 26.8784 100.895 27.0806 100.643 27.0806H98.7241C97.9157 27.0806 97.4616 26.526 97.4616 25.7943V19.0335H87.7673V26.5764C87.7673 26.8279 87.5655 27.0806 87.2874 27.0806H84.662C84.384 27.0806 84.1575 26.8537 84.1575 26.5764V7.37793C84.1575 7.12582 84.3593 6.89893 84.6368 6.89893H87.2622C87.5403 6.89893 87.7673 7.12582 87.7673 7.37793V15.4009H97.4616V7.37793C97.4616 7.12582 97.6629 6.89893 97.9667 6.89893H100.592Z" fill="white"/>
<path fill-rule="evenodd" clip-rule="evenodd" d="M113.758 23.7764C117.394 23.7764 120.449 20.6481 120.449 16.9646C120.449 13.3068 117.394 10.2037 113.758 10.2037C110.122 10.2037 107.044 13.3068 107.044 16.9646C107.044 20.6481 110.122 23.7764 113.758 23.7764ZM113.758 27.2576C108.053 27.2576 103.433 22.7164 103.433 16.9646C103.433 11.2631 108.053 6.72192 113.758 6.72192C119.413 6.72192 124.033 11.2631 124.033 16.9646C124.033 22.7164 119.413 27.2576 113.758 27.2576Z" fill="white"/>
<path fill-rule="evenodd" clip-rule="evenodd" d="M141.719 6.87354C141.996 6.87354 142.198 7.05056 142.198 7.3783V19.7397C142.198 24.0288 139.194 27.258 134.17 27.258C129.172 27.258 126.243 24.0288 126.243 19.7397V7.3783C126.243 7.07577 126.471 6.87354 126.774 6.87354H129.373C129.651 6.87354 129.853 7.07577 129.853 7.3783V19.6131C129.853 22.2115 131.444 23.7762 134.17 23.7762C136.922 23.7762 138.588 22.2115 138.588 19.6131V7.3783C138.588 7.05056 138.79 6.87354 139.067 6.87354H141.719Z" fill="white"/>
<path fill-rule="evenodd" clip-rule="evenodd" d="M145.62 21.9093C145.923 21.5558 146.302 21.5558 146.579 21.7581C147.413 22.4645 148.902 23.8018 150.77 23.8018C152.588 23.8018 154.153 23.1205 154.153 21.5558C154.153 19.9166 152.462 19.4376 150.72 18.7306C147.11 17.2426 144.484 15.7037 144.484 12.4241C144.484 9.85042 146.378 6.74731 150.947 6.74731C154.052 6.74731 156.299 8.5137 156.955 9.16973C157.233 9.4465 157.385 9.8 157.132 10.1031L155.869 11.7681C155.617 12.0964 155.264 12.2476 154.86 11.9698C154.052 11.3389 152.739 10.1782 150.972 10.1782C149.18 10.1782 148.069 11.2134 148.069 12.4241C148.069 13.7608 149.231 14.4168 151.124 15.1742C154.43 16.5614 157.738 18.0499 157.738 21.6068C157.738 24.5581 154.809 27.2573 150.821 27.2573C147.211 27.2573 144.964 24.9615 144.332 24.357C144.106 24.1547 143.878 23.8769 144.182 23.5738L145.62 21.9093Z" fill="white"/>
<mask id="mask0_9_100" style="mask-type:luminance" maskUnits="userSpaceOnUse" x="159" y="6" width="14" height="22">
<path d="M159.696 6.89929H173V27.0804H159.696V6.89929Z" fill="white"/>
</mask>
<g mask="url(#mask0_9_100)">
<path fill-rule="evenodd" clip-rule="evenodd" d="M163.306 10.3806V15.4512H168.253C168.531 15.4512 168.758 15.6781 168.758 15.9559V18.4529C168.758 18.7554 168.556 18.933 168.253 18.933H163.332V23.5997H172.495C172.773 23.5997 173 23.8266 173 24.1045V26.5762C173 26.8541 172.773 27.0804 172.495 27.0804H160.2C159.923 27.0804 159.696 26.8541 159.696 26.5762V7.37884C159.696 7.12564 159.897 6.89929 160.175 6.89929H172.495C172.773 6.89929 173 7.12564 173 7.37884V9.90155C173 10.1783 172.773 10.3806 172.495 10.3806H163.306Z" fill="white"/>
</g>
<path fill-rule="evenodd" clip-rule="evenodd" d="M3.60985 17.4507H8.02864C10.4275 17.4507 11.5886 15.71 11.5886 13.9431C11.5886 12.2534 10.4023 10.5879 8.02864 10.5879H3.60985V17.4507ZM15.5779 26.7106C15.7792 27.0137 15.6284 27.291 15.2248 27.291H12.8763C12.1694 27.291 11.5628 26.635 11.3358 26.2563L7.87673 20.933H3.60985V26.7857C3.60985 27.0888 3.40802 27.291 3.13051 27.291H0.454659C0.201278 27.291 0 27.0888 0 26.7857V7.58508C0 7.33297 0.201278 7.10608 0.479338 7.10608H8.53376C12.6739 7.10608 15.2248 10.9414 15.2248 14.0193C15.2248 16.4669 13.7604 19.1666 11.2858 20.3269L15.5779 26.7106Z" fill="white"/>
<path fill-rule="evenodd" clip-rule="evenodd" d="M27.4561 23.9857C31.0917 23.9857 34.1471 20.8568 34.1471 17.1733C34.1471 13.5156 31.0917 10.4114 27.4561 10.4114C23.8199 10.4114 20.7398 13.5156 20.7398 17.1733C20.7398 20.8568 23.8199 23.9857 27.4561 23.9857ZM27.4561 27.4675C21.7501 27.4675 17.1289 22.9257 17.1289 17.1733C17.1289 11.4713 21.7501 6.92957 27.4561 6.92957C33.1116 6.92957 37.7311 11.4713 37.7311 17.1733C37.7311 22.9257 33.1116 27.4675 27.4561 27.4675Z" fill="white"/>
<mask id="mask1_9_100" style="mask-type:luminance" maskUnits="userSpaceOnUse" x="36" y="0" width="24" height="28">
<path d="M36.3501 0H59.816V27.0991H36.3501V0Z" fill="white"/>
</mask>
<g mask="url(#mask1_9_100)">
<path fill-rule="evenodd" clip-rule="evenodd" d="M44.723 16.3002L46.3135 19.8324L55.5081 0.479976C55.6348 0.22787 55.7609 -0.00012207 56.0385 -0.00012207H59.3461C59.6242 -0.00012207 59.9269 0.22787 59.7755 0.580819L46.9442 26.7204C46.8433 26.9221 46.6414 27.0991 46.4144 27.0991H46.2126C45.9603 27.0991 45.7579 26.9221 45.657 26.7204L42.7025 20.5137L40.6832 16.3002L36.3905 7.3433C36.2391 7.01556 36.5419 6.78812 36.8199 6.78812H40.1271C40.4051 6.78812 40.5318 7.01556 40.6327 7.26767L42.7025 11.8346L44.723 16.3002Z" fill="white"/>
</g>
<mask id="mask2_9_100" style="mask-type:luminance" maskUnits="userSpaceOnUse" x="46" y="0" width="25" height="28">
<path d="M46.803 0H70.269V27.0991H46.803V0Z" fill="white"/>
</mask>
<g mask="url(#mask2_9_100)">
<path fill-rule="evenodd" clip-rule="evenodd" d="M55.1755 16.3002L56.766 19.8324L65.9606 0.479976C66.0879 0.22787 66.2135 -0.00012207 66.4915 -0.00012207H69.7986C70.0767 -0.00012207 70.38 0.22787 70.2286 0.580819L57.3973 26.7204C57.2964 26.9221 57.094 27.0991 56.8669 27.0991H56.6651C56.4128 27.0991 56.211 26.9221 56.1095 26.7204L53.1551 20.5137L51.1357 16.3002L46.8436 7.3433C46.6917 7.01556 46.995 6.78812 47.273 6.78812H50.5796C50.8582 6.78812 50.9843 7.01556 51.0852 7.26767L53.1551 11.8346L55.1755 16.3002Z" fill="white"/>
</g>
<mask id="mask3_9_100" style="mask-type:luminance" maskUnits="userSpaceOnUse" x="57" y="0" width="24" height="28">
<path d="M57.2556 0H80.7212V27.0991H57.2556V0Z" fill="white"/>
</mask>
<g mask="url(#mask3_9_100)">
<path fill-rule="evenodd" clip-rule="evenodd" d="M65.6285 16.3002L67.2184 19.8324L76.4136 0.479976C76.5403 0.22787 76.667 -0.00012207 76.944 -0.00012207H80.2516C80.5297 -0.00012207 80.8324 0.22787 80.6805 0.580819L67.8497 26.7204C67.7488 26.9221 67.547 27.0991 67.3199 27.0991H67.1181C66.8652 27.0991 66.6634 26.9221 66.5625 26.7204L63.608 20.5137L61.5887 16.3002L57.296 7.3433C57.1447 7.01556 57.4474 6.78812 57.726 6.78812H61.0326C61.3106 6.78812 61.4362 7.01556 61.5382 7.26767L63.608 11.8346L65.6285 16.3002Z" fill="white"/>
</g>
</svg>
